<svg width="32" height="32" viewBox="0 0 32 32" fill="none" xmlns="http://www.w3.org/2000/svg">
<g clip-path="url(#clip0_1_1151)">
<path d="M31.5211 19.8706C29.3839 28.442 20.7015 33.6585 12.128 31.521C3.55811 29.384 -1.65895 20.7021 0.479282 12.1312C2.61551 3.55876 11.2979 -1.65819 19.8689 0.478794C28.4417 2.61577 33.6583 11.2987 31.5211 19.8706Z" fill="#F7931A"/>
<path d="M23.0527 13.7204C23.3712 11.5914 21.7501 10.4469 19.5333 9.68338L20.2524 6.79945L18.4967 6.36194L17.7966 9.16992C17.3351 9.05492 16.861 8.94638 16.39 8.83892L17.0951 6.01244L15.3403 5.57495L14.6208 8.45792C14.2387 8.37092 13.8637 8.28492 13.4997 8.19445L13.5017 8.18545L11.0804 7.58092L10.6133 9.45592C10.6133 9.45592 11.916 9.75438 11.8885 9.77292C12.5996 9.95038 12.7281 10.4209 12.7066 10.7939L11.8875 14.0794C11.9365 14.0919 12 14.1099 12.07 14.1379C12.0115 14.1234 11.949 14.1074 11.8845 14.0919L10.7364 18.6943C10.6493 18.9103 10.4289 19.2343 9.93179 19.1113C9.94926 19.1368 8.65566 18.7929 8.65566 18.7929L7.78406 20.8023L10.0688 21.3718C10.4939 21.4783 10.9104 21.5898 11.3204 21.6948L10.5939 24.6118L12.3475 25.0493L13.0671 22.1633C13.5462 22.2933 14.0112 22.4133 14.4663 22.5263L13.7492 25.3988L15.5049 25.8363L16.2315 22.9248C19.2253 23.4912 21.4765 23.2628 22.4241 20.5553C23.1877 18.3753 22.3861 17.1179 20.8109 16.2979C21.9581 16.0333 22.8221 15.2789 23.0527 13.7204ZM19.0413 19.3448C18.4987 21.5248 14.8278 20.3463 13.6377 20.0508L14.6018 16.1863C15.7919 16.4833 19.6083 17.0713 19.0413 19.3448ZM19.5843 13.6889C19.0893 15.6719 16.0339 14.6644 15.0428 14.4174L15.9169 10.9124C16.908 11.1594 20.0999 11.6204 19.5843 13.6889Z" fill="white"/>
</g>
<defs>
<clipPath id="clip0_1_1151">
<rect width="32" height="32" fill="white"/>
</clipPath>
</defs>
</svg>
