<svg width="127" height="41" viewBox="0 0 127 41" fill="none" xmlns="http://www.w3.org/2000/svg">
<g clip-path="url(#clip0_1_71)">
<path d="M8.157 40.5C7.828 40.5 7.509 40.5 7.184 40.489C6.50942 40.4807 5.83632 40.4236 5.17 40.318C4.5508 40.2157 3.94982 40.0237 3.386 39.748C2.83134 39.4759 2.32363 39.117 1.882 38.685C1.43784 38.2619 1.06622 37.7686 0.782 37.225C0.496 36.68 0.298 36.095 0.195 35.492C0.084 34.844 0.025 34.188 0.017 33.531L0 32.577V8.415L0.018 7.482C0.026 6.826 0.085 6.172 0.195 5.525C0.298754 4.91826 0.496817 4.3315 0.782 3.786C1.062 3.244 1.432 2.751 1.875 2.324C2.318 1.897 2.827 1.532 3.385 1.255C3.94741 0.97932 4.54707 0.787292 5.165 0.685C5.8333 0.578834 6.50838 0.521017 7.185 0.512L8.157 0.5H118.844L119.827 0.514C120.496 0.521631 121.163 0.578451 121.823 0.684C122.449 0.787 123.055 0.979 123.623 1.254C124.741 1.813 125.65 2.698 126.224 3.785C126.504 4.32665 126.699 4.90861 126.8 5.51C126.914 6.16186 126.978 6.82142 126.992 7.483V8.413L127 9.553V31.442L126.992 32.566V33.538C126.979 34.1877 126.918 34.8356 126.807 35.476C126.706 36.0859 126.507 36.6756 126.22 37.223C125.935 37.7612 125.566 38.2504 125.127 38.672C124.687 39.105 124.178 39.465 123.62 39.74C123.052 40.0173 122.447 40.2093 121.823 40.31C121.157 40.4161 120.485 40.4732 119.811 40.481L118.844 40.492H117.677L8.157 40.5Z" fill="white"/>
<path d="M25.864 19.934C25.888 18.064 26.89 16.337 28.518 15.358C27.487 13.916 25.82 13.034 24.022 12.98C22.132 12.786 20.296 14.088 19.332 14.088C18.349 14.088 16.865 12.999 15.266 13.031C13.164 13.097 11.251 14.238 10.228 16.036C8.049 19.727 9.674 25.152 11.763 28.135C12.806 29.596 14.027 31.228 15.624 31.169C17.187 31.106 17.77 30.194 19.656 30.194C21.542 30.194 22.072 31.169 23.701 31.133C25.378 31.105 26.434 29.665 27.441 28.191C28.19 27.1536 28.7673 26.0026 29.151 24.782C27.161 23.958 25.867 22.049 25.864 19.934V19.934ZM22.788 11.016C23.703 9.94197 24.153 8.56197 24.044 7.16797C22.647 7.31197 21.357 7.96497 20.431 8.99697C19.9792 9.49693 19.6323 10.0824 19.4107 10.7188C19.1891 11.3552 19.0974 12.0295 19.141 12.702C20.557 12.717 21.901 12.095 22.788 11.016ZM44.611 27.617H39.482L38.251 31.174H36.079L40.935 18.011H43.192L48.05 31.174H45.841L44.61 27.617H44.611ZM40.014 25.976H44.078L42.07 20.198H42.013L40.014 25.976V25.976ZM58.542 26.38C58.542 29.361 56.911 31.278 54.448 31.278C53.176 31.343 51.977 30.691 51.362 29.599H51.316V34.352H49.308V21.58H51.257V23.176H51.294C51.936 22.091 53.137 21.439 54.418 21.48C56.902 21.481 58.542 23.406 58.542 26.381V26.38ZM56.473 26.38C56.473 24.438 55.447 23.16 53.875 23.16C52.34 23.16 51.302 24.463 51.302 26.38C51.302 28.297 52.338 29.609 53.875 29.609C55.441 29.609 56.473 28.338 56.473 26.38ZM69.338 26.38C69.338 29.361 67.706 31.278 65.245 31.278C63.972 31.343 62.774 30.691 62.159 29.599H62.111V34.352H60.103V21.58H62.052V23.176H62.089C62.731 22.091 63.932 21.439 65.213 21.48C67.697 21.481 69.34 23.406 69.34 26.381L69.338 26.38ZM67.268 26.38C67.268 24.438 66.242 23.16 64.67 23.16C63.135 23.16 62.097 24.463 62.097 26.38C62.097 28.297 63.132 29.609 64.67 29.609C66.244 29.609 67.268 28.34 67.268 26.38ZM76.469 27.508C76.619 28.814 77.915 29.67 79.685 29.67C81.382 29.67 82.603 28.814 82.603 27.636C82.603 26.614 81.866 26.002 80.123 25.584L78.379 25.173C75.909 24.589 74.761 23.459 74.761 21.624C74.761 19.353 76.784 17.793 79.655 17.793C82.499 17.793 84.448 19.353 84.513 21.624H82.483C82.365 20.31 81.252 19.517 79.63 19.517C78.008 19.517 76.899 20.319 76.899 21.481C76.899 22.411 77.608 22.96 79.341 23.378L80.823 23.734C83.583 24.373 84.73 25.458 84.73 27.383C84.73 29.846 82.722 31.387 79.533 31.387C76.55 31.387 74.535 29.885 74.405 27.5L76.468 27.507L76.469 27.508ZM89.079 19.309V21.58H90.945V23.14H89.079V28.43C89.079 29.253 89.452 29.635 90.273 29.635C90.494 29.631 90.7146 29.616 90.934 29.59V31.141C90.5652 31.2078 90.1908 31.2383 89.816 31.232C87.831 31.232 87.056 30.502 87.056 28.64V23.14H85.63V21.58H87.055V19.309H89.078H89.079ZM92.023 26.378C92.023 23.358 93.841 21.461 96.675 21.461C99.509 21.461 101.328 23.358 101.328 26.378C101.328 29.398 99.528 31.295 96.671 31.295C93.814 31.295 92.022 29.406 92.022 26.378H92.023ZM99.276 26.378C99.276 24.307 98.306 23.084 96.678 23.084C95.05 23.084 94.08 24.316 94.08 26.378C94.08 28.44 95.05 29.67 96.678 29.67C98.306 29.67 99.276 28.458 99.276 26.378V26.378ZM102.986 21.579H104.906V23.213H104.952C105.22 22.161 106.206 21.437 107.314 21.48C107.546 21.4787 107.777 21.5032 108.004 21.553V23.395C107.71 23.309 107.405 23.2698 107.099 23.279C105.98 23.235 105.035 24.087 104.99 25.182C104.986 25.2837 104.989 25.3857 105 25.487V31.179H102.993L102.986 21.579V21.579ZM117.282 28.357C117.011 30.099 115.274 31.295 113.058 31.295C110.205 31.295 108.433 29.425 108.433 26.424C108.433 23.423 110.214 21.461 112.973 21.461C115.69 21.461 117.394 23.286 117.394 26.199V26.874H110.466V26.99C110.342 28.365 111.381 29.577 112.786 29.699C112.892 29.708 112.999 29.71 113.106 29.706C114.083 29.796 115.004 29.247 115.371 28.356L117.282 28.358V28.357ZM110.477 25.492H115.384C115.454 24.221 114.46 23.133 113.161 23.06H112.979C112.323 23.0542 111.691 23.3055 111.218 23.76C110.75 24.213 110.484 24.83 110.481 25.475L110.477 25.492ZM37.756 14.843V8.76697H40.345C41.555 8.76697 42.283 9.34797 42.283 10.284C42.283 10.917 41.812 11.463 41.154 11.591V11.663C41.977 11.699 42.62 12.346 42.605 13.124C42.605 14.195 41.781 14.848 40.404 14.848L37.755 14.844L37.756 14.843ZM38.756 11.336H39.942C40.827 11.336 41.286 11.029 41.286 10.447C41.286 9.89097 40.853 9.55797 40.109 9.55797H38.756V11.336V11.336ZM40.202 14.042C41.103 14.042 41.58 13.696 41.58 13.051C41.58 12.406 41.085 12.088 40.143 12.088H38.754V14.048L40.201 14.043L40.202 14.042ZM43.63 13.549C43.63 12.723 44.282 12.247 45.438 12.179L46.755 12.108V11.716C46.755 11.23 46.415 10.958 45.759 10.958C45.224 10.958 44.852 11.144 44.746 11.468H43.817C43.915 10.68 44.7 10.175 45.803 10.175C47.022 10.175 47.71 10.748 47.71 11.717V14.853H46.791V14.207H46.716C46.402 14.678 45.844 14.954 45.255 14.928C44.8708 14.9668 44.486 14.859 44.178 14.626C44.0305 14.5146 43.9071 14.3745 43.8151 14.2142C43.7232 14.0538 43.6646 13.8765 43.643 13.693C43.6357 13.6456 43.6314 13.5979 43.63 13.55V13.549ZM46.756 13.16V12.776L45.569 12.847C44.899 12.89 44.597 13.105 44.597 13.514C44.597 13.923 44.976 14.167 45.498 14.167C46.128 14.227 46.69 13.794 46.754 13.199L46.756 13.16V13.16ZM49.086 8.89997C49.069 8.57697 49.331 8.30197 49.673 8.28397C50.015 8.26597 50.307 8.51397 50.327 8.83597C50.347 9.15797 50.086 9.43597 49.744 9.45497H49.711C49.5558 9.46378 49.403 9.41299 49.284 9.31297C49.168 9.21397 49.098 9.07497 49.091 8.92697L49.086 8.89997V8.89997ZM49.228 10.258H50.181V14.848H49.228V10.258ZM53.476 13.22L52.417 14.847H51.358L52.97 12.563L51.345 10.257H52.465L53.51 11.876H53.585L54.621 10.257H55.687L54.085 12.524L55.705 14.846H54.602L53.543 13.219L53.475 13.22H53.476ZM56.554 13.549C56.554 12.723 57.205 12.247 58.362 12.179L59.678 12.108V11.716C59.678 11.23 59.339 10.958 58.684 10.958C58.147 10.958 57.777 11.144 57.671 11.468H56.743C56.841 10.68 57.626 10.175 58.729 10.175C59.947 10.175 60.634 10.748 60.634 11.717V14.853H59.711V14.207H59.634C59.321 14.678 58.763 14.954 58.175 14.928C57.369 15.007 56.647 14.454 56.563 13.693L56.555 13.55L56.554 13.549ZM59.678 13.158V12.774L58.492 12.845C57.822 12.888 57.519 13.103 57.519 13.512C57.519 13.921 57.899 14.165 58.42 14.165C58.72 14.1949 59.0203 14.1099 59.26 13.927C59.495 13.745 59.645 13.483 59.675 13.197L59.677 13.158H59.678ZM62.136 10.258H63.059V10.961H63.126C63.339 10.461 63.869 10.147 64.438 10.183C64.581 10.181 64.725 10.194 64.865 10.221V11.11C64.689 11.074 64.51 11.056 64.33 11.054C63.703 11.001 63.15 11.438 63.094 12.03V12.134V14.844H62.135L62.136 10.257V10.258ZM68.573 10.255H69.493V10.984H69.565C69.814 10.447 70.397 10.118 71.016 10.166C71.4307 10.1348 71.8418 10.2625 72.166 10.523C72.484 10.781 72.68 11.148 72.711 11.543C72.72 11.654 72.716 11.766 72.699 11.876V14.847H71.74V12.101C71.74 11.363 71.4 10.997 70.69 10.997C70.365 10.982 70.049 11.102 69.826 11.326C69.603 11.55 69.495 11.854 69.53 12.16V14.846H68.571L68.573 10.255V10.255ZM73.91 13.549C73.91 12.723 74.561 12.247 75.718 12.179L77.035 12.108V11.716C77.035 11.23 76.696 10.958 76.039 10.958C75.504 10.958 75.132 11.144 75.027 11.468H74.097C74.195 10.68 74.981 10.175 76.084 10.175C77.303 10.175 77.99 10.748 77.99 11.717V14.853H77.066V14.207H76.991C76.678 14.678 76.12 14.954 75.532 14.928C74.725 15.007 74.004 14.454 73.92 13.693C73.914 13.645 73.911 13.598 73.911 13.55L73.91 13.549ZM77.035 13.158V12.774L75.849 12.845C75.178 12.888 74.876 13.103 74.876 13.512C74.876 13.921 75.256 14.165 75.777 14.165C76.407 14.225 76.969 13.792 77.033 13.197L77.035 13.158V13.158Z" fill="black"/>
</g>
<defs>
<clipPath id="clip0_1_71">
<rect width="127" height="40" fill="white" transform="translate(0 0.5)"/>
</clipPath>
</defs>
</svg>
