<svg width="127" height="42" viewBox="0 0 127 42" fill="none" xmlns="http://www.w3.org/2000/svg">
<g clip-path="url(#clip0_1_75)">
<path d="M122.506 0.876953H4.494C2.012 0.876953 0 3.01295 0 5.64895V36.105C0 38.741 2.012 40.877 4.494 40.877H122.506C124.988 40.877 127 38.74 127 36.105V5.64895C127 3.01295 124.988 0.876953 122.506 0.876953V0.876953Z" fill="white"/>
<path d="M64.1 22.629C61.891 22.638 60.107 24.547 60.114 26.895C60.121 29.243 61.915 31.141 64.124 31.136C66.333 31.131 68.12 29.225 68.117 26.877C68.131 25.742 67.712 24.649 66.955 23.849C66.198 23.049 65.168 22.608 64.1 22.63V22.629ZM64.1 29.459C63.104 29.535 62.165 28.955 61.734 27.998C61.5226 27.529 61.4491 27.0094 61.522 26.5001C61.595 25.9909 61.8114 25.5129 62.146 25.122C62.826 24.344 63.884 24.088 64.814 24.475C65.744 24.862 66.356 25.815 66.358 26.877C66.389 27.54 66.167 28.188 65.742 28.674C65.317 29.16 64.725 29.443 64.101 29.459H64.1ZM55.338 22.629C53.129 22.638 51.345 24.547 51.352 26.895C51.359 29.243 53.153 31.141 55.362 31.136C57.571 31.131 59.358 29.225 59.355 26.877C59.369 25.742 58.95 24.649 58.193 23.849C57.436 23.049 56.406 22.608 55.338 22.63V22.629ZM55.338 29.459C54.342 29.534 53.404 28.955 52.972 27.997C52.54 27.039 52.704 25.899 53.385 25.121C54.066 24.343 55.123 24.087 56.053 24.475C56.983 24.863 57.595 25.815 57.597 26.877C57.628 27.54 57.406 28.188 56.98 28.675C56.554 29.162 55.963 29.444 55.338 29.459V29.459ZM44.916 23.933V25.736H48.977C48.9225 26.5735 48.5979 27.3707 48.052 28.008C47.229 28.9 46.09 29.38 44.915 29.329C42.448 29.289 40.468 27.151 40.468 24.528C40.468 21.905 42.448 19.767 44.915 19.727C46.055 19.712 47.155 20.175 47.976 21.016L49.174 19.743C48.043 18.551 46.508 17.894 44.915 17.919C42.675 17.888 40.593 19.14 39.465 21.197C38.9099 22.2185 38.6192 23.3625 38.6192 24.525C38.6192 25.6875 38.9099 26.8316 39.465 27.853C40.593 29.91 42.676 31.162 44.915 31.131C46.543 31.202 48.121 30.528 49.249 29.278C50.238 28.13 50.766 26.616 50.719 25.06C50.723 24.682 50.693 24.304 50.628 23.933H44.915H44.916ZM87.539 25.334C87.046 23.756 85.677 22.674 84.114 22.628C83.5937 22.6346 83.0807 22.7509 82.6084 22.9692C82.1361 23.1875 81.7151 23.503 81.373 23.895C80.66 24.697 80.288 25.775 80.341 26.877C80.318 28.006 80.727 29.097 81.475 29.899C81.8348 30.2912 82.273 30.6035 82.7612 30.8156C83.2494 31.0276 83.7767 31.1348 84.309 31.13C85.648 31.138 86.902 30.429 87.644 29.244L86.28 28.278C85.864 29.012 85.115 29.458 84.309 29.453C83.475 29.486 82.706 28.976 82.369 28.165L87.719 25.813L87.539 25.333V25.334ZM82.082 26.752C82.044 26.127 82.245 25.512 82.638 25.045C83.031 24.578 83.585 24.3 84.173 24.271C84.793 24.228 85.378 24.583 85.658 25.173L82.081 26.752H82.082ZM77.732 30.877H79.49V18.375H77.732V30.876V30.877ZM74.852 23.581H74.792C74.251 22.957 73.484 22.611 72.686 22.631C70.544 22.73 68.855 24.604 68.855 26.884C68.855 29.164 70.544 31.038 72.686 31.137C73.488 31.16 74.258 30.806 74.792 30.17H74.852V30.783C74.852 32.41 74.034 33.28 72.716 33.28C71.817 33.257 71.02 32.658 70.7 31.765L69.17 32.442C69.762 33.967 71.164 34.959 72.717 34.95C74.778 34.95 76.521 33.661 76.521 30.52V22.887H74.853V23.581H74.852ZM72.837 29.461C71.577 29.348 70.608 28.228 70.608 26.883C70.608 25.538 71.577 24.418 72.837 24.305C73.448 24.336 74.021 24.63 74.424 25.119C74.827 25.608 75.025 26.25 74.974 26.898C75.021 27.541 74.82 28.177 74.417 28.66C74.014 29.143 73.444 29.43 72.837 29.457V29.459V29.461ZM95.773 18.378H91.567V30.877H93.322V26.141H95.774C97.128 26.223 98.414 25.501 99.114 24.266C99.4583 23.653 99.6391 22.9616 99.6391 22.2585C99.6391 21.5554 99.4583 20.8641 99.114 20.251C98.414 19.016 97.128 18.294 95.774 18.376V18.377L95.773 18.378ZM95.818 24.403H93.321V20.117H95.818C96.549 20.099 97.232 20.504 97.603 21.174C97.7854 21.5069 97.881 21.8804 97.881 22.26C97.881 22.6396 97.7854 23.0131 97.603 23.346C97.232 24.016 96.549 24.421 95.818 24.403V24.404V24.403ZM106.665 22.606C105.355 22.525 104.125 23.276 103.532 24.52L105.091 25.211C105.409 24.594 106.041 24.236 106.7 24.299C107.627 24.203 108.453 24.922 108.546 25.908V26.036C107.988 25.7197 107.357 25.5536 106.715 25.554C105.036 25.554 103.325 26.536 103.325 28.368C103.358 29.149 103.687 29.882 104.238 30.4C104.789 30.918 105.512 31.177 106.245 31.118C107.146 31.174 108.004 30.706 108.486 29.895H108.546V30.859H110.24V26.07C110.237 23.844 108.679 22.606 106.665 22.606V22.606ZM106.45 29.457C105.875 29.457 105.074 29.151 105.074 28.396C105.074 27.431 106.073 27.061 106.935 27.061C107.497 27.044 108.052 27.189 108.544 27.479C108.41 28.602 107.515 29.448 106.45 29.457ZM116.406 22.879L114.394 28.298H114.334L112.246 22.879H110.355L113.487 30.454L111.701 34.672H113.532L118.358 22.883L116.406 22.878V22.879ZM100.6 30.876H102.356V18.375H100.6V30.876V30.876Z" fill="black"/>
<path d="M9.81001 8.41805C9.50201 8.81005 9.34601 9.31205 9.37501 9.82205V31.938C9.34601 32.448 9.50201 32.951 9.81001 33.343L9.88001 33.415L21.535 21.028V20.736L9.88001 8.34705L9.81001 8.41905V8.41805Z" fill="url(#paint0_linear_1_75)"/>
<path d="M25.421 25.159L21.538 21.022V20.73L25.424 16.6L25.512 16.652L30.117 19.437C30.704 19.641 31.101 20.224 31.101 20.88C31.101 21.536 30.704 22.119 30.117 22.323L25.506 25.103L25.421 25.158V25.159Z" fill="url(#paint1_linear_1_75)"/>
<path d="M25.511 25.1031L21.538 20.8781L9.813 33.3431C10.0734 33.5934 10.4175 33.7384 10.7786 33.7498C11.1397 33.7613 11.4922 33.6384 11.768 33.4051L25.511 25.1051" fill="url(#paint2_linear_1_75)"/>
<path d="M25.511 16.656L11.768 8.35698C11.4922 8.1236 11.1397 8.00076 10.7786 8.01221C10.4175 8.02366 10.0734 8.16859 9.813 8.41898L21.538 20.881L25.511 16.656Z" fill="url(#paint3_linear_1_75)"/>
<path opacity="0.2" d="M25.423 25.01L11.768 33.257C11.5033 33.4756 11.1712 33.5961 10.8279 33.5981C10.4847 33.6001 10.1512 33.4835 9.88399 33.268L9.81299 33.343L9.88299 33.415C10.1502 33.6305 10.4837 33.7471 10.8269 33.7451C11.1702 33.7431 11.5023 33.6226 11.767 33.404L25.51 25.104L25.423 25.011V25.01Z" fill="black"/>
<path opacity="0.12" d="M9.81 33.197C9.49873 32.7973 9.34405 32.2977 9.375 31.792V31.938C9.346 32.448 9.502 32.95 9.81 33.342L9.881 33.267L9.81 33.196V33.197ZM30.109 22.178L25.418 25.011L25.506 25.104L30.109 22.324C30.662 22.07 31.041 21.516 31.098 20.879C30.98 21.454 30.613 21.936 30.109 22.179V22.178Z" fill="black"/>
<path opacity="0.25" d="M11.766 8.50405L30.112 19.5841C30.615 19.8281 30.98 20.3091 31.097 20.8821C31.041 20.2461 30.663 19.6921 30.112 19.4381L11.766 8.35805C10.452 7.56005 9.37601 8.22305 9.37601 9.82505V9.97105C9.37701 8.36905 10.454 7.70905 11.766 8.50405Z" fill="white"/>
<path d="M38.885 13.8801V7.88009H40.612C41.384 7.84209 42.138 8.14309 42.694 8.71409C43.222 9.29209 43.504 10.0751 43.474 10.8801C43.504 11.6851 43.222 12.4681 42.694 13.0461C42.138 13.6171 41.385 13.9191 40.612 13.8801L38.885 13.8791V13.8801ZM39.609 13.1441H40.611C41.181 13.1761 41.74 12.9611 42.159 12.5491C42.559 12.1011 42.766 11.4971 42.731 10.8811C42.7568 10.5811 42.7199 10.2791 42.6226 9.99415C42.5253 9.70923 42.3698 9.44766 42.166 9.22609C41.9701 9.01321 41.7282 8.84787 41.4587 8.74267C41.1892 8.63748 40.8993 8.59521 40.611 8.61909H39.609V13.1451V13.1441ZM44.493 13.8791V7.87909H45.217V13.8791H44.493ZM48.098 14.0121C47.6616 14.003 47.2399 13.8529 46.896 13.5841C46.4998 13.2937 46.2257 12.8663 46.127 12.3851L46.79 12.1011C46.866 12.4261 47.035 12.7171 47.275 12.9341C47.5 13.1531 47.794 13.2751 48.099 13.2761C48.389 13.2851 48.673 13.1921 48.908 13.0121C49.126 12.8481 49.251 12.5791 49.243 12.2951C49.2515 12.1487 49.2256 12.0024 49.1674 11.8679C49.1092 11.7333 49.0204 11.6142 48.908 11.5201C48.5868 11.2902 48.2276 11.1186 47.847 11.0131C47.4224 10.8895 47.0331 10.6671 46.711 10.3641C46.453 10.0971 46.312 9.72709 46.324 9.34509C46.324 8.91409 46.499 8.50509 46.806 8.22309C46.9715 8.06261 47.168 7.93749 47.3834 7.85531C47.5988 7.77314 47.8286 7.73564 48.059 7.74509C48.4814 7.72609 48.8962 7.86152 49.226 8.12609C49.495 8.33609 49.698 8.62709 49.809 8.96009L49.147 9.25309C49.0872 9.04513 48.9646 8.86072 48.796 8.72509C48.366 8.39909 47.789 8.39909 47.36 8.72509C47.267 8.79795 47.1921 8.89122 47.1409 8.99769C47.0898 9.10416 47.0638 9.22097 47.065 9.33909C47.064 9.56509 47.166 9.77709 47.337 9.90909C47.579 10.0951 47.85 10.2351 48.137 10.3241C48.3749 10.4025 48.608 10.495 48.835 10.6011C49.035 10.6981 49.225 10.8181 49.401 10.9571C49.5885 11.1021 49.7361 11.2924 49.83 11.5101C49.9321 11.7526 49.9822 12.014 49.977 12.2771C49.9817 12.5463 49.9238 12.813 49.808 13.0561C49.7052 13.2721 49.5507 13.4593 49.358 13.6011C49.173 13.7351 48.97 13.8381 48.756 13.9061C48.5438 13.9751 48.3221 14.0106 48.099 14.0111L48.098 14.0121ZM51.749 13.8791H51.024V7.87909H52.948C53.408 7.87209 53.852 8.05309 54.189 8.38609C54.3568 8.5537 54.4896 8.753 54.5798 8.97239C54.6699 9.19179 54.7155 9.42691 54.714 9.66409C54.714 10.1491 54.524 10.6121 54.189 10.9421C54.0263 11.1049 53.8327 11.2336 53.6196 11.3207C53.4065 11.4077 53.1782 11.4514 52.948 11.4491H51.749V13.8781V13.8791ZM51.749 10.7111H52.963C53.1018 10.7162 53.2399 10.6895 53.3668 10.633C53.4937 10.5765 53.606 10.4917 53.695 10.3851C53.8724 10.187 53.9705 9.93048 53.9705 9.66459C53.9705 9.3987 53.8724 9.14216 53.695 8.94409C53.509 8.72409 53.241 8.60409 52.963 8.61609H51.749V10.7111ZM60.246 13.1021C59.9828 13.3887 59.6629 13.6174 59.3067 13.7739C58.9505 13.9304 58.5656 14.0112 58.1765 14.0112C57.7874 14.0112 57.4025 13.9304 57.0463 13.7739C56.6901 13.6174 56.3702 13.3887 56.107 13.1021C55.558 12.5111 55.258 11.7081 55.276 10.8771C55.2544 10.0561 55.5524 9.25879 56.107 8.65309C56.655 8.06909 57.399 7.74109 58.174 7.74109C58.949 7.74109 59.693 8.06909 60.241 8.65309C60.7964 9.25741 61.0957 10.0536 61.076 10.8741C61.094 11.7061 60.794 12.5101 60.245 13.1031L60.246 13.1021ZM56.643 12.5991C57.05 13.0311 57.601 13.2741 58.177 13.2741C58.753 13.2741 59.304 13.0311 59.711 12.5991C60.137 12.1287 60.362 11.5103 60.338 10.8761C60.36 10.2331 60.133 9.60909 59.711 9.14909C59.5161 8.93645 59.2792 8.76665 59.0152 8.6505C58.7512 8.53434 58.4659 8.47436 58.1775 8.47436C57.8891 8.47436 57.6038 8.53434 57.3398 8.6505C57.0758 8.76665 56.8389 8.93645 56.644 9.14909C56.223 9.60809 55.997 10.2311 56.018 10.8721C55.9929 11.5076 56.218 12.1277 56.645 12.5991H56.644H56.643Z" fill="black"/>
<path d="M62.092 13.879V7.87903H62.975L65.718 12.547H65.749L65.718 11.39V7.87903H66.444V13.879H65.687L62.816 8.98503H62.785L62.816 10.142V13.879H62.092Z" fill="black"/>
<path d="M67.739 13.878V7.87804H68.463V13.878H67.739ZM68.416 7.41004H67.786L68.196 6.33704H68.984L68.417 7.41004H68.416ZM71.148 13.879L69.161 7.87904H69.965L71.509 12.748H71.541L73.15 7.87904H73.953L71.904 13.879H71.148V13.879ZM78.073 8.61504H75.499V10.519H77.816V11.239H75.502V13.142H78.076V13.878H74.777V7.87804H78.073V8.61404V8.61504ZM79.205 13.879V7.87904H79.93V13.142H82.373V13.878H79.205V13.879Z" fill="black"/>
<path d="M85.184 13.879V7.87903H86.067L88.81 12.547H88.841L88.81 11.39V7.87903H89.536V13.879H88.779L85.908 8.98503H85.877L85.908 10.142V13.879H85.184Z" fill="black"/>
<path d="M95.443 13.1021C95.1798 13.3888 94.8599 13.6177 94.5035 13.7743C94.1472 13.9309 93.7622 14.0118 93.373 14.0118C92.9838 14.0118 92.5988 13.9309 92.2425 13.7743C91.8861 13.6177 91.5662 13.3888 91.303 13.1021C90.754 12.5101 90.454 11.7081 90.472 10.8771C90.454 10.0471 90.754 9.24409 91.303 8.65309C91.851 8.06909 92.595 7.74109 93.371 7.74109C94.147 7.74109 94.891 8.06909 95.439 8.65309C95.989 9.24309 96.29 10.0441 96.275 10.8741C96.293 11.7061 95.993 12.5101 95.444 13.1031L95.443 13.1021ZM91.84 12.6001C92.247 13.0321 92.798 13.2751 93.374 13.2751C93.95 13.2751 94.501 13.0321 94.908 12.6001C95.33 12.1411 95.556 11.5191 95.535 10.8771C95.557 10.2341 95.33 9.61009 94.908 9.15009C94.7131 8.93745 94.4762 8.76766 94.2122 8.6515C93.9482 8.53534 93.6629 8.47536 93.3745 8.47536C93.0861 8.47536 92.8008 8.53534 92.5368 8.6515C92.2728 8.76766 92.0359 8.93745 91.841 9.15009C91.42 9.60909 91.193 10.2321 91.215 10.8731C91.1899 11.5086 91.415 12.1287 91.842 12.6001H91.841H91.84Z" fill="black"/>
</g>
<defs>
<linearGradient id="paint0_linear_1_75" x1="20.492" y1="32.162" x2="1.71101" y2="27.456" gradientUnits="userSpaceOnUse">
<stop stop-color="#00A0FF"/>
<stop offset="0.007" stop-color="#00A1FF"/>
<stop offset="0.26" stop-color="#00BEFF"/>
<stop offset="0.512" stop-color="#00D2FF"/>
<stop offset="0.76" stop-color="#00DFFF"/>
<stop offset="1" stop-color="#00E3FF"/>
</linearGradient>
<linearGradient id="paint1_linear_1_75" x1="31.828" y1="20.879" x2="9.05699" y2="20.879" gradientUnits="userSpaceOnUse">
<stop stop-color="#FFE000"/>
<stop offset="0.409" stop-color="#FFBD00"/>
<stop offset="0.775" stop-color="#FFA500"/>
<stop offset="1" stop-color="#FF9C00"/>
</linearGradient>
<linearGradient id="paint2_linear_1_75" x1="23.345" y1="18.5571" x2="6.965" y2="-7.42095" gradientUnits="userSpaceOnUse">
<stop stop-color="#FF3A44"/>
<stop offset="1" stop-color="#C31162"/>
</linearGradient>
<linearGradient id="paint3_linear_1_75" x1="6.862" y1="40.764" x2="14.179" y2="29.163" gradientUnits="userSpaceOnUse">
<stop stop-color="#32A071"/>
<stop offset="0.068" stop-color="#2DA771"/>
<stop offset="0.476" stop-color="#15CF74"/>
<stop offset="0.801" stop-color="#06E775"/>
<stop offset="1" stop-color="#00F076"/>
</linearGradient>
<clipPath id="clip0_1_75">
<rect width="127" height="41" fill="white" transform="translate(0 0.5)"/>
</clipPath>
</defs>
</svg>
