<svg width="25" height="33" viewBox="0 0 25 33" fill="none" xmlns="http://www.w3.org/2000/svg">
<path d="M20.8008 31.5H4.13375C2.29175 31.5 0.800751 30.008 0.800751 28.167V14.833C0.800751 12.991 2.29275 11.5 4.13375 11.5H20.8008C22.6428 11.5 24.1338 12.992 24.1338 14.833V28.166C24.1338 30.008 22.6418 31.499 20.8008 31.499V31.5Z" stroke="white" stroke-width="1.5" stroke-linejoin="round"/>
<path d="M5.80075 11.5V8.167C5.80155 6.39905 6.50422 4.70373 7.75435 3.4536C9.00448 2.20346 10.6998 1.5008 12.4678 1.5C14.2357 1.5008 15.931 2.20346 17.1812 3.4536C18.4313 4.70373 19.134 6.39905 19.1348 8.167V11.5M17.4688 18.167H7.46875M17.4688 24.833H7.46875" stroke="white" stroke-width="1.5" stroke-linecap="round" stroke-linejoin="round"/>
</svg>
