<svg width="25" height="35" viewBox="0 0 25 35" fill="none" xmlns="http://www.w3.org/2000/svg">
<path d="M13.6467 19.167V11.667C13.6467 11.004 13.3833 10.3681 12.9145 9.89923C12.4457 9.43038 11.8098 9.16699 11.1467 9.16699C10.4837 9.16699 9.84781 9.43038 9.37897 9.89923C8.91013 10.3681 8.64674 11.004 8.64674 11.667V15.834V24.167L5.25974 23.039C4.27174 22.709 3.18174 22.967 2.44274 23.704C1.29774 24.849 1.38474 26.727 2.62574 27.764L9.38374 33.396C9.98386 33.894 10.7389 34.167 11.5187 34.168H19.0357C20.7177 34.168 22.1337 32.916 22.3437 31.248L23.2487 24.01C23.4707 22.235 22.2517 20.603 20.4887 20.308L13.6457 19.168L13.6467 19.167Z" stroke="white" stroke-width="1.5" stroke-linejoin="round"/>
<path d="M1.15274 10.833H2.81974M21.1507 10.833H19.4837M18.2187 3.76701L17.0357 4.93401M4.07074 3.76701L5.25374 4.93401M11.1527 0.833008V2.50001" stroke="white" stroke-width="1.5" stroke-linecap="round" stroke-linejoin="round"/>
</svg>
