<svg width="32" height="32" viewBox="0 0 32 32" fill="none" xmlns="http://www.w3.org/2000/svg">
<g clip-path="url(#clip0_1_1170)">
<path d="M16 32C24.8365 32 32 24.8365 32 16C32 7.16347 24.8365 0 16 0C7.16347 0 0 7.16347 0 16C0 24.8365 7.16347 32 16 32Z" fill="#627EEA"/>
<path d="M16.4986 3.9978V12.8682L23.9956 16.2187L16.4986 3.9978Z" fill="#C1CCF7"/>
<path d="M16.4987 3.9978L9.00166 16.2187L16.4987 12.8682V3.9978Z" fill="white"/>
<path d="M16.4986 21.9658V27.9932L24 17.6138L16.4986 21.9658Z" fill="#C1CCF7"/>
<path d="M16.4987 27.9932V21.9658L9.00166 17.6138L16.4987 27.9932Z" fill="white"/>
<path d="M16.4986 20.5709L23.9956 16.2189L16.4986 12.8684V20.5709Z" fill="#8198EE"/>
<path d="M9.00166 16.2189L16.4987 20.5709V12.8684L9.00166 16.2189Z" fill="#C1CCF7"/>
</g>
<defs>
<clipPath id="clip0_1_1170">
<rect width="32" height="32" fill="white"/>
</clipPath>
</defs>
</svg>
