<svg width="33" height="28" viewBox="0 0 33 28" fill="none" xmlns="http://www.w3.org/2000/svg">
<path d="M10.0048 18.298C10.4724 18.7615 10.8439 19.3129 11.0979 19.9204C11.3518 20.5279 11.4833 21.1796 11.4848 21.838C11.4862 22.4965 11.3576 23.1487 11.1063 23.7573C10.8549 24.3659 10.4859 24.9189 10.0203 25.3845C9.5547 25.8501 9.00173 26.2191 8.39312 26.4705C7.78452 26.7218 7.13227 26.8504 6.47382 26.849C5.81537 26.8475 5.16368 26.716 4.55618 26.462C3.94868 26.2081 3.39733 25.8366 2.93378 25.369C2.46615 24.9054 2.09468 24.3541 1.84071 23.7466C1.58673 23.1391 1.45525 22.4874 1.45381 21.8289C1.45237 21.1705 1.58099 20.5182 1.83231 19.9096C2.08362 19.301 2.45267 18.7481 2.91826 18.2825C3.38386 17.8169 3.93683 17.4478 4.54544 17.1965C5.15404 16.9452 5.80629 16.8166 6.46475 16.818C7.1232 16.8194 7.77488 16.9509 8.38238 17.2049C8.98988 17.4589 9.54123 17.8303 10.0048 18.298V18.298Z" stroke="white" stroke-width="1.5" stroke-linejoin="round"/>
<path d="M27.3008 9.333L31.4678 5.166L27.3008 1" stroke="white" stroke-width="1.5" stroke-linecap="round" stroke-linejoin="round"/>
<path d="M31.4688 5.16699H23.1357C21.8097 5.16699 20.5379 5.69378 19.6002 6.63146C18.6625 7.56914 18.1357 8.84091 18.1357 10.167V16.834C18.1357 18.1601 17.609 19.4318 16.6713 20.3695C15.7336 21.3072 14.4618 21.834 13.1357 21.834H11.4688" stroke="white" stroke-width="1.5" stroke-linecap="round" stroke-linejoin="round"/>
</svg>
