<svg width="93" height="94" viewBox="0 0 93 94" fill="none" xmlns="http://www.w3.org/2000/svg">
<g clip-path="url(#clip0_1_94)">
<path d="M93 0.5H0V93.5H93V0.5Z" fill="white"/>
<path d="M8.58857 6.28113H5.78113V9.08973H8.58973V6.28113H8.58857Z" fill="black"/>
<path d="M11.3995 6.28113H8.59204V9.08973H11.4006V6.28113H11.3995Z" fill="black"/>
<path d="M14.2058 6.28113H11.3983V9.08973H14.2069V6.28113H14.2058Z" fill="black"/>
<path d="M17.0167 6.28113H14.2081V9.08973H17.0167V6.28113Z" fill="black"/>
<path d="M19.8183 6.28113H17.0097V9.08973H19.8183V6.28113Z" fill="black"/>
<path d="M22.6292 6.28113H19.8206V9.08973H22.6292V6.28113Z" fill="black"/>
<path d="M25.4402 6.28113H22.6316V9.08973H25.4402V6.28113Z" fill="black"/>
<path d="M28.2464 6.28113H25.4378V9.08973H28.2464V6.28113Z" fill="white"/>
<path d="M31.0539 6.28113H28.2453V9.08973H31.0539V6.28113Z" fill="white"/>
<path d="M33.8648 6.28113H31.0562V9.08973H33.8648V6.28113Z" fill="black"/>
<path d="M36.6711 6.28113H33.8625V9.08973H36.6711V6.28113Z" fill="white"/>
<path d="M39.4773 6.28113H36.6687V9.08973H39.4773V6.28113Z" fill="white"/>
<path d="M42.2883 6.28113H39.4797V9.08973H42.2883V6.28113Z" fill="black"/>
<path d="M45.0992 6.28113H42.2906V9.08973H45.0992V6.28113Z" fill="black"/>
<path d="M47.9055 6.28113H45.0969V9.08973H47.9055V6.28113Z" fill="white"/>
<path d="M50.7117 6.28113H47.9031V9.08973H50.7117V6.28113Z" fill="black"/>
<path d="M53.518 6.28113H50.7094V9.08973H53.518V6.28113Z" fill="white"/>
<path d="M56.3289 6.28113H53.5203V9.08973H56.3289V6.28113Z" fill="white"/>
<path d="M59.1399 6.28113H56.3313V9.08973H59.1399V6.28113Z" fill="black"/>
<path d="M61.9461 6.28113H59.1375V9.08973H61.9461V6.28113Z" fill="black"/>
<path d="M64.7524 6.28113H61.9438V9.08973H64.7524V6.28113Z" fill="white"/>
<path d="M67.5633 6.28113H64.7547V9.08973H67.5633V6.28113Z" fill="white"/>
<path d="M70.3696 6.28113H67.561V9.08973H70.3696V6.28113Z" fill="black"/>
<path d="M73.1759 6.28113H70.3673V9.08973H73.1759V6.28113Z" fill="black"/>
<path d="M75.9868 6.28113H73.1782V9.08973H75.9868V6.28113Z" fill="black"/>
<path d="M78.7977 6.28113H75.9891V9.08973H78.7977V6.28113Z" fill="black"/>
<path d="M81.5994 6.28113H78.7908V9.08973H81.5994V6.28113Z" fill="black"/>
<path d="M84.4103 6.28113H81.6017V9.08973H84.4103V6.28113Z" fill="black"/>
<path d="M87.2166 6.28113H84.408V9.08973H87.2166V6.28113Z" fill="black"/>
<path d="M8.58857 9.08972H5.78113V11.8983H8.58973V9.08972H8.58857Z" fill="black"/>
<path d="M11.3995 9.08972H8.59204V11.8983H11.4006V9.08972H11.3995Z" fill="white"/>
<path d="M14.2058 9.08972H11.3983V11.8983H14.2069V9.08972H14.2058Z" fill="white"/>
<path d="M17.0167 9.08972H14.2081V11.8983H17.0167V9.08972Z" fill="white"/>
<path d="M19.8183 9.08972H17.0097V11.8983H19.8183V9.08972Z" fill="white"/>
<path d="M22.6292 9.08972H19.8206V11.8983H22.6292V9.08972Z" fill="white"/>
<path d="M25.4402 9.08972H22.6316V11.8983H25.4402V9.08972Z" fill="black"/>
<path d="M28.2464 9.08972H25.4378V11.8983H28.2464V9.08972Z" fill="white"/>
<path d="M31.0539 9.08972H28.2453V11.8983H31.0539V9.08972Z" fill="black"/>
<path d="M33.8648 9.08972H31.0562V11.8983H33.8648V9.08972Z" fill="white"/>
<path d="M36.6711 9.08972H33.8625V11.8983H36.6711V9.08972Z" fill="white"/>
<path d="M39.4773 9.08972H36.6687V11.8983H39.4773V9.08972Z" fill="black"/>
<path d="M42.2882 9.08972H39.4796V11.8983H42.2882V9.08972Z" fill="black"/>
<path d="M45.0992 9.08972H42.2906V11.8983H45.0992V9.08972Z" fill="white"/>
<path d="M47.9055 9.08972H45.0969V11.8983H47.9055V9.08972Z" fill="white"/>
<path d="M50.7117 9.08972H47.9031V11.8983H50.7117V9.08972Z" fill="black"/>
<path d="M53.518 9.08972H50.7094V11.8983H53.518V9.08972Z" fill="black"/>
<path d="M56.3289 9.08972H53.5203V11.8983H56.3289V9.08972Z" fill="black"/>
<path d="M59.1399 9.08972H56.3313V11.8983H59.1399V9.08972Z" fill="black"/>
<path d="M61.9461 9.08972H59.1375V11.8983H61.9461V9.08972Z" fill="white"/>
<path d="M64.7524 9.08972H61.9438V11.8983H64.7524V9.08972Z" fill="black"/>
<path d="M67.5633 9.08972H64.7547V11.8983H67.5633V9.08972Z" fill="white"/>
<path d="M70.3696 9.08972H67.561V11.8983H70.3696V9.08972Z" fill="black"/>
<path d="M73.1759 9.08972H70.3673V11.8983H73.1759V9.08972Z" fill="white"/>
<path d="M75.9868 9.08972H73.1782V11.8983H75.9868V9.08972Z" fill="white"/>
<path d="M78.7977 9.08972H75.9891V11.8983H78.7977V9.08972Z" fill="white"/>
<path d="M81.5993 9.08972H78.7907V11.8983H81.5993V9.08972Z" fill="white"/>
<path d="M84.4103 9.08972H81.6017V11.8983H84.4103V9.08972Z" fill="white"/>
<path d="M87.2166 9.08972H84.408V11.8983H87.2166V9.08972Z" fill="black"/>
<path d="M8.58857 11.8983H5.78113V14.7069H8.58973V11.8983H8.58857Z" fill="black"/>
<path d="M11.3995 11.8983H8.59204V14.7069H11.4006V11.8983H11.3995Z" fill="white"/>
<path d="M14.2058 11.8983H11.3983V14.7069H14.2069V11.8983H14.2058Z" fill="black"/>
<path d="M17.0167 11.8983H14.2081V14.7069H17.0167V11.8983Z" fill="black"/>
<path d="M19.8183 11.8983H17.0097V14.7069H19.8183V11.8983Z" fill="black"/>
<path d="M22.6292 11.8983H19.8206V14.7069H22.6292V11.8983Z" fill="white"/>
<path d="M25.4402 11.8983H22.6316V14.7069H25.4402V11.8983Z" fill="black"/>
<path d="M28.2464 11.8983H25.4378V14.7069H28.2464V11.8983Z" fill="white"/>
<path d="M31.0539 11.8983H28.2453V14.7069H31.0539V11.8983Z" fill="black"/>
<path d="M33.8648 11.8983H31.0562V14.7069H33.8648V11.8983Z" fill="black"/>
<path d="M36.6711 11.8983H33.8625V14.7069H36.6711V11.8983Z" fill="black"/>
<path d="M39.4773 11.8983H36.6687V14.7069H39.4773V11.8983Z" fill="black"/>
<path d="M42.2883 11.8983H39.4797V14.7069H42.2883V11.8983Z" fill="black"/>
<path d="M45.0992 11.8983H42.2906V14.7069H45.0992V11.8983Z" fill="white"/>
<path d="M47.9055 11.8983H45.0969V14.7069H47.9055V11.8983Z" fill="white"/>
<path d="M50.7117 11.8983H47.9031V14.7069H50.7117V11.8983Z" fill="white"/>
<path d="M53.518 11.8983H50.7094V14.7069H53.518V11.8983Z" fill="white"/>
<path d="M56.3289 11.8983H53.5203V14.7069H56.3289V11.8983Z" fill="black"/>
<path d="M59.1399 11.8983H56.3313V14.7069H59.1399V11.8983Z" fill="white"/>
<path d="M61.9461 11.8983H59.1375V14.7069H61.9461V11.8983Z" fill="white"/>
<path d="M64.7524 11.8983H61.9438V14.7069H64.7524V11.8983Z" fill="black"/>
<path d="M67.5633 11.8983H64.7547V14.7069H67.5633V11.8983Z" fill="white"/>
<path d="M70.3696 11.8983H67.561V14.7069H70.3696V11.8983Z" fill="black"/>
<path d="M73.1759 11.8983H70.3673V14.7069H73.1759V11.8983Z" fill="white"/>
<path d="M75.9868 11.8983H73.1782V14.7069H75.9868V11.8983Z" fill="black"/>
<path d="M78.7977 11.8983H75.9891V14.7069H78.7977V11.8983Z" fill="black"/>
<path d="M81.5994 11.8983H78.7908V14.7069H81.5994V11.8983Z" fill="black"/>
<path d="M84.4103 11.8983H81.6017V14.7069H84.4103V11.8983Z" fill="white"/>
<path d="M87.2166 11.8983H84.408V14.7069H87.2166V11.8983Z" fill="black"/>
<path d="M8.58857 14.7058H5.78113V17.5144H8.58973V14.7058H8.58857Z" fill="black"/>
<path d="M11.3995 14.7058H8.59204V17.5144H11.4006V14.7058H11.3995Z" fill="white"/>
<path d="M14.2058 14.7058H11.3983V17.5144H14.2069V14.7058H14.2058Z" fill="black"/>
<path d="M17.0167 14.7058H14.2081V17.5144H17.0167V14.7058Z" fill="black"/>
<path d="M19.8183 14.7058H17.0097V17.5144H19.8183V14.7058Z" fill="black"/>
<path d="M22.6292 14.7058H19.8206V17.5144H22.6292V14.7058Z" fill="white"/>
<path d="M25.4402 14.7058H22.6316V17.5144H25.4402V14.7058Z" fill="black"/>
<path d="M28.2464 14.7058H25.4378V17.5144H28.2464V14.7058Z" fill="white"/>
<path d="M31.0539 14.7058H28.2453V17.5144H31.0539V14.7058Z" fill="white"/>
<path d="M33.8648 14.7058H31.0562V17.5144H33.8648V14.7058Z" fill="black"/>
<path d="M36.6711 14.7058H33.8625V17.5144H36.6711V14.7058Z" fill="black"/>
<path d="M39.4773 14.7058H36.6687V17.5144H39.4773V14.7058Z" fill="black"/>
<path d="M42.2883 14.7058H39.4797V17.5144H42.2883V14.7058Z" fill="white"/>
<path d="M45.0992 14.7058H42.2906V17.5144H45.0992V14.7058Z" fill="white"/>
<path d="M47.9055 14.7058H45.0969V17.5144H47.9055V14.7058Z" fill="white"/>
<path d="M50.7117 14.7058H47.9031V17.5144H50.7117V14.7058Z" fill="black"/>
<path d="M53.518 14.7058H50.7094V17.5144H53.518V14.7058Z" fill="black"/>
<path d="M56.3289 14.7058H53.5203V17.5144H56.3289V14.7058Z" fill="white"/>
<path d="M59.1398 14.7058H56.3312V17.5144H59.1398V14.7058Z" fill="white"/>
<path d="M61.9461 14.7058H59.1375V17.5144H61.9461V14.7058Z" fill="white"/>
<path d="M64.7524 14.7058H61.9438V17.5144H64.7524V14.7058Z" fill="white"/>
<path d="M67.5633 14.7058H64.7547V17.5144H67.5633V14.7058Z" fill="white"/>
<path d="M70.3696 14.7058H67.561V17.5144H70.3696V14.7058Z" fill="black"/>
<path d="M73.1759 14.7058H70.3673V17.5144H73.1759V14.7058Z" fill="white"/>
<path d="M75.9868 14.7058H73.1782V17.5144H75.9868V14.7058Z" fill="black"/>
<path d="M78.7977 14.7058H75.9891V17.5144H78.7977V14.7058Z" fill="black"/>
<path d="M81.5994 14.7058H78.7908V17.5144H81.5994V14.7058Z" fill="black"/>
<path d="M84.4103 14.7058H81.6017V17.5144H84.4103V14.7058Z" fill="white"/>
<path d="M87.2166 14.7058H84.408V17.5144H87.2166V14.7058Z" fill="black"/>
<path d="M8.58857 17.5144H5.78113V20.323H8.58973V17.5144H8.58857Z" fill="black"/>
<path d="M11.3995 17.5144H8.59204V20.323H11.4006V17.5144H11.3995Z" fill="white"/>
<path d="M14.2058 17.5144H11.3983V20.323H14.2069V17.5144H14.2058Z" fill="black"/>
<path d="M17.0167 17.5144H14.2081V20.323H17.0167V17.5144Z" fill="black"/>
<path d="M19.8183 17.5144H17.0097V20.323H19.8183V17.5144Z" fill="black"/>
<path d="M22.6292 17.5144H19.8206V20.323H22.6292V17.5144Z" fill="white"/>
<path d="M25.4402 17.5144H22.6316V20.323H25.4402V17.5144Z" fill="black"/>
<path d="M28.2464 17.5144H25.4378V20.323H28.2464V17.5144Z" fill="white"/>
<path d="M31.0539 17.5144H28.2453V20.323H31.0539V17.5144Z" fill="black"/>
<path d="M33.8648 17.5144H31.0562V20.323H33.8648V17.5144Z" fill="white"/>
<path d="M36.6711 17.5144H33.8625V20.323H36.6711V17.5144Z" fill="white"/>
<path d="M39.4773 17.5144H36.6687V20.323H39.4773V17.5144Z" fill="white"/>
<path d="M42.2882 17.5144H39.4796V20.323H42.2882V17.5144Z" fill="white"/>
<path d="M45.0992 17.5144H42.2906V20.323H45.0992V17.5144Z" fill="white"/>
<path d="M47.9055 17.5144H45.0969V20.323H47.9055V17.5144Z" fill="white"/>
<path d="M50.7117 17.5144H47.9031V20.323H50.7117V17.5144Z" fill="black"/>
<path d="M53.518 17.5144H50.7094V20.323H53.518V17.5144Z" fill="black"/>
<path d="M56.3289 17.5144H53.5203V20.323H56.3289V17.5144Z" fill="black"/>
<path d="M59.1399 17.5144H56.3313V20.323H59.1399V17.5144Z" fill="black"/>
<path d="M61.9461 17.5144H59.1375V20.323H61.9461V17.5144Z" fill="white"/>
<path d="M64.7524 17.5144H61.9438V20.323H64.7524V17.5144Z" fill="white"/>
<path d="M67.5633 17.5144H64.7547V20.323H67.5633V17.5144Z" fill="white"/>
<path d="M70.3696 17.5144H67.561V20.323H70.3696V17.5144Z" fill="black"/>
<path d="M73.1759 17.5144H70.3673V20.323H73.1759V17.5144Z" fill="white"/>
<path d="M75.9868 17.5144H73.1782V20.323H75.9868V17.5144Z" fill="black"/>
<path d="M78.7977 17.5144H75.9891V20.323H78.7977V17.5144Z" fill="black"/>
<path d="M81.5994 17.5144H78.7908V20.323H81.5994V17.5144Z" fill="black"/>
<path d="M84.4103 17.5144H81.6017V20.323H84.4103V17.5144Z" fill="white"/>
<path d="M87.2166 17.5144H84.408V20.323H87.2166V17.5144Z" fill="black"/>
<path d="M8.58857 20.323H5.78113V23.1316H8.58973V20.323H8.58857Z" fill="black"/>
<path d="M11.3995 20.323H8.59204V23.1316H11.4006V20.323H11.3995Z" fill="white"/>
<path d="M14.2058 20.323H11.3983V23.1316H14.2069V20.323H14.2058Z" fill="white"/>
<path d="M17.0167 20.323H14.2081V23.1316H17.0167V20.323Z" fill="white"/>
<path d="M19.8183 20.323H17.0097V23.1316H19.8183V20.323Z" fill="white"/>
<path d="M22.6292 20.323H19.8206V23.1316H22.6292V20.323Z" fill="white"/>
<path d="M25.4402 20.323H22.6316V23.1316H25.4402V20.323Z" fill="black"/>
<path d="M28.2464 20.323H25.4378V23.1316H28.2464V20.323Z" fill="white"/>
<path d="M31.0539 20.323H28.2453V23.1316H31.0539V20.323Z" fill="black"/>
<path d="M33.8648 20.323H31.0562V23.1316H33.8648V20.323Z" fill="black"/>
<path d="M36.6711 20.323H33.8625V23.1316H36.6711V20.323Z" fill="white"/>
<path d="M39.4773 20.323H36.6687V23.1316H39.4773V20.323Z" fill="black"/>
<path d="M42.2883 20.323H39.4797V23.1316H42.2883V20.323Z" fill="white"/>
<path d="M45.0992 20.323H42.2906V23.1316H45.0992V20.323Z" fill="white"/>
<path d="M47.9055 20.323H45.0969V23.1316H47.9055V20.323Z" fill="white"/>
<path d="M50.7117 20.323H47.9031V23.1316H50.7117V20.323Z" fill="black"/>
<path d="M53.518 20.323H50.7094V23.1316H53.518V20.323Z" fill="black"/>
<path d="M56.3289 20.323H53.5203V23.1316H56.3289V20.323Z" fill="black"/>
<path d="M59.1399 20.323H56.3313V23.1316H59.1399V20.323Z" fill="black"/>
<path d="M61.9461 20.323H59.1375V23.1316H61.9461V20.323Z" fill="black"/>
<path d="M64.7524 20.323H61.9438V23.1316H64.7524V20.323Z" fill="black"/>
<path d="M67.5633 20.323H64.7547V23.1316H67.5633V20.323Z" fill="white"/>
<path d="M70.3696 20.323H67.561V23.1316H70.3696V20.323Z" fill="black"/>
<path d="M73.1759 20.323H70.3673V23.1316H73.1759V20.323Z" fill="white"/>
<path d="M75.9868 20.323H73.1782V23.1316H75.9868V20.323Z" fill="white"/>
<path d="M78.7977 20.323H75.9891V23.1316H78.7977V20.323Z" fill="white"/>
<path d="M81.5993 20.323H78.7907V23.1316H81.5993V20.323Z" fill="white"/>
<path d="M84.4103 20.323H81.6017V23.1316H84.4103V20.323Z" fill="white"/>
<path d="M87.2166 20.323H84.408V23.1316H87.2166V20.323Z" fill="black"/>
<path d="M8.58857 23.1305H5.78113V25.9391H8.58973V23.1305H8.58857Z" fill="black"/>
<path d="M11.3995 23.1305H8.59204V25.9391H11.4006V23.1305H11.3995Z" fill="black"/>
<path d="M14.2058 23.1305H11.3983V25.9391H14.2069V23.1305H14.2058Z" fill="black"/>
<path d="M17.0167 23.1305H14.2081V25.9391H17.0167V23.1305Z" fill="black"/>
<path d="M19.8183 23.1305H17.0097V25.9391H19.8183V23.1305Z" fill="black"/>
<path d="M22.6292 23.1305H19.8206V25.9391H22.6292V23.1305Z" fill="black"/>
<path d="M25.4402 23.1305H22.6316V25.9391H25.4402V23.1305Z" fill="black"/>
<path d="M28.2464 23.1304H25.4378V25.939H28.2464V23.1304Z" fill="white"/>
<path d="M31.0539 23.1304H28.2453V25.939H31.0539V23.1304Z" fill="black"/>
<path d="M33.8648 23.1304H31.0562V25.939H33.8648V23.1304Z" fill="white"/>
<path d="M36.6711 23.1304H33.8625V25.939H36.6711V23.1304Z" fill="black"/>
<path d="M39.4773 23.1304H36.6687V25.939H39.4773V23.1304Z" fill="white"/>
<path d="M42.2883 23.1304H39.4797V25.939H42.2883V23.1304Z" fill="black"/>
<path d="M45.0992 23.1304H42.2906V25.939H45.0992V23.1304Z" fill="white"/>
<path d="M47.9055 23.1304H45.0969V25.939H47.9055V23.1304Z" fill="black"/>
<path d="M50.7117 23.1304H47.9031V25.939H50.7117V23.1304Z" fill="white"/>
<path d="M53.518 23.1304H50.7094V25.939H53.518V23.1304Z" fill="black"/>
<path d="M56.3289 23.1304H53.5203V25.939H56.3289V23.1304Z" fill="white"/>
<path d="M59.1399 23.1304H56.3313V25.939H59.1399V23.1304Z" fill="black"/>
<path d="M61.9461 23.1304H59.1375V25.939H61.9461V23.1304Z" fill="white"/>
<path d="M64.7524 23.1304H61.9438V25.939H64.7524V23.1304Z" fill="black"/>
<path d="M67.5633 23.1304H64.7547V25.939H67.5633V23.1304Z" fill="white"/>
<path d="M70.3696 23.1304H67.561V25.939H70.3696V23.1304Z" fill="black"/>
<path d="M73.1759 23.1304H70.3673V25.939H73.1759V23.1304Z" fill="black"/>
<path d="M75.9868 23.1304H73.1782V25.939H75.9868V23.1304Z" fill="black"/>
<path d="M78.7977 23.1304H75.9891V25.939H78.7977V23.1304Z" fill="black"/>
<path d="M81.5993 23.1304H78.7907V25.939H81.5993V23.1304Z" fill="black"/>
<path d="M84.4103 23.1304H81.6017V25.939H84.4103V23.1304Z" fill="black"/>
<path d="M87.2166 23.1304H84.408V25.939H87.2166V23.1304Z" fill="black"/>
<path d="M8.58857 25.939H5.78113V28.7476H8.58973V25.939H8.58857Z" fill="white"/>
<path d="M11.3995 25.939H8.59204V28.7476H11.4006V25.939H11.3995Z" fill="white"/>
<path d="M14.2058 25.939H11.3983V28.7476H14.2069V25.939H14.2058Z" fill="white"/>
<path d="M17.0167 25.939H14.2081V28.7476H17.0167V25.939Z" fill="white"/>
<path d="M19.8183 25.939H17.0097V28.7476H19.8183V25.939Z" fill="white"/>
<path d="M22.6292 25.939H19.8206V28.7476H22.6292V25.939Z" fill="white"/>
<path d="M25.4402 25.939H22.6316V28.7476H25.4402V25.939Z" fill="white"/>
<path d="M28.2464 25.939H25.4378V28.7476H28.2464V25.939Z" fill="white"/>
<path d="M31.0539 25.939H28.2453V28.7476H31.0539V25.939Z" fill="black"/>
<path d="M33.8648 25.939H31.0562V28.7476H33.8648V25.939Z" fill="black"/>
<path d="M36.6711 25.939H33.8625V28.7476H36.6711V25.939Z" fill="white"/>
<path d="M39.4773 25.939H36.6687V28.7476H39.4773V25.939Z" fill="white"/>
<path d="M42.2883 25.939H39.4797V28.7476H42.2883V25.939Z" fill="black"/>
<path d="M45.0992 25.939H42.2906V28.7476H45.0992V25.939Z" fill="white"/>
<path d="M47.9055 25.939H45.0969V28.7476H47.9055V25.939Z" fill="black"/>
<path d="M50.7117 25.939H47.9031V28.7476H50.7117V25.939Z" fill="white"/>
<path d="M53.518 25.939H50.7094V28.7476H53.518V25.939Z" fill="white"/>
<path d="M56.3289 25.939H53.5203V28.7476H56.3289V25.939Z" fill="black"/>
<path d="M59.1398 25.939H56.3312V28.7476H59.1398V25.939Z" fill="black"/>
<path d="M61.9461 25.939H59.1375V28.7476H61.9461V25.939Z" fill="black"/>
<path d="M64.7524 25.939H61.9438V28.7476H64.7524V25.939Z" fill="black"/>
<path d="M67.5633 25.939H64.7547V28.7476H67.5633V25.939Z" fill="white"/>
<path d="M70.3696 25.939H67.561V28.7476H70.3696V25.939Z" fill="white"/>
<path d="M73.1759 25.939H70.3673V28.7476H73.1759V25.939Z" fill="white"/>
<path d="M75.9868 25.939H73.1782V28.7476H75.9868V25.939Z" fill="white"/>
<path d="M78.7977 25.939H75.9891V28.7476H78.7977V25.939Z" fill="white"/>
<path d="M81.5993 25.939H78.7907V28.7476H81.5993V25.939Z" fill="white"/>
<path d="M84.4103 25.939H81.6017V28.7476H84.4103V25.939Z" fill="white"/>
<path d="M87.2166 25.939H84.408V28.7476H87.2166V25.939Z" fill="white"/>
<path d="M8.58857 28.7465H5.78113V31.5551H8.58973V28.7465H8.58857Z" fill="black"/>
<path d="M11.3995 28.7465H8.59204V31.5551H11.4006V28.7465H11.3995Z" fill="black"/>
<path d="M14.2058 28.7465H11.3983V31.5551H14.2069V28.7465H14.2058Z" fill="white"/>
<path d="M17.0167 28.7465H14.2081V31.5551H17.0167V28.7465Z" fill="black"/>
<path d="M19.8183 28.7465H17.0097V31.5551H19.8183V28.7465Z" fill="white"/>
<path d="M22.6292 28.7465H19.8206V31.5551H22.6292V28.7465Z" fill="white"/>
<path d="M25.4402 28.7465H22.6316V31.5551H25.4402V28.7465Z" fill="black"/>
<path d="M28.2464 28.7465H25.4378V31.5551H28.2464V28.7465Z" fill="black"/>
<path d="M31.0539 28.7465H28.2453V31.5551H31.0539V28.7465Z" fill="white"/>
<path d="M33.8648 28.7465H31.0562V31.5551H33.8648V28.7465Z" fill="white"/>
<path d="M36.6711 28.7465H33.8625V31.5551H36.6711V28.7465Z" fill="black"/>
<path d="M39.4773 28.7465H36.6687V31.5551H39.4773V28.7465Z" fill="white"/>
<path d="M42.2883 28.7465H39.4797V31.5551H42.2883V28.7465Z" fill="black"/>
<path d="M45.0992 28.7465H42.2906V31.5551H45.0992V28.7465Z" fill="black"/>
<path d="M47.9055 28.7465H45.0969V31.5551H47.9055V28.7465Z" fill="black"/>
<path d="M50.7117 28.7465H47.9031V31.5551H50.7117V28.7465Z" fill="white"/>
<path d="M53.518 28.7465H50.7094V31.5551H53.518V28.7465Z" fill="white"/>
<path d="M56.3289 28.7465H53.5203V31.5551H56.3289V28.7465Z" fill="white"/>
<path d="M59.1399 28.7465H56.3313V31.5551H59.1399V28.7465Z" fill="black"/>
<path d="M61.9461 28.7465H59.1375V31.5551H61.9461V28.7465Z" fill="black"/>
<path d="M64.7524 28.7465H61.9438V31.5551H64.7524V28.7465Z" fill="white"/>
<path d="M67.5633 28.7465H64.7547V31.5551H67.5633V28.7465Z" fill="white"/>
<path d="M70.3696 28.7465H67.561V31.5551H70.3696V28.7465Z" fill="black"/>
<path d="M73.1759 28.7465H70.3673V31.5551H73.1759V28.7465Z" fill="black"/>
<path d="M75.9868 28.7465H73.1782V31.5551H75.9868V28.7465Z" fill="black"/>
<path d="M78.7977 28.7465H75.9891V31.5551H78.7977V28.7465Z" fill="white"/>
<path d="M81.5994 28.7465H78.7908V31.5551H81.5994V28.7465Z" fill="black"/>
<path d="M84.4103 28.7465H81.6017V31.5551H84.4103V28.7465Z" fill="black"/>
<path d="M87.2166 28.7465H84.408V31.5551H87.2166V28.7465Z" fill="white"/>
<path d="M8.58857 31.5551H5.78113V34.3637H8.58973V31.5551H8.58857Z" fill="black"/>
<path d="M11.3995 31.5551H8.59204V34.3637H11.4006V31.5551H11.3995Z" fill="black"/>
<path d="M14.2058 31.5551H11.3983V34.3637H14.2069V31.5551H14.2058Z" fill="black"/>
<path d="M17.0167 31.5551H14.2081V34.3637H17.0167V31.5551Z" fill="black"/>
<path d="M19.8183 31.5551H17.0097V34.3637H19.8183V31.5551Z" fill="white"/>
<path d="M22.6292 31.5551H19.8206V34.3637H22.6292V31.5551Z" fill="white"/>
<path d="M25.4402 31.5551H22.6316V34.3637H25.4402V31.5551Z" fill="white"/>
<path d="M28.2464 31.5551H25.4378V34.3637H28.2464V31.5551Z" fill="black"/>
<path d="M31.0539 31.5551H28.2453V34.3637H31.0539V31.5551Z" fill="black"/>
<path d="M33.8648 31.5551H31.0562V34.3637H33.8648V31.5551Z" fill="white"/>
<path d="M36.6711 31.5551H33.8625V34.3637H36.6711V31.5551Z" fill="black"/>
<path d="M39.4773 31.5551H36.6687V34.3637H39.4773V31.5551Z" fill="black"/>
<path d="M42.2883 31.5551H39.4797V34.3637H42.2883V31.5551Z" fill="white"/>
<path d="M45.0992 31.5551H42.2906V34.3637H45.0992V31.5551Z" fill="black"/>
<path d="M47.9055 31.5551H45.0969V34.3637H47.9055V31.5551Z" fill="white"/>
<path d="M50.7117 31.5551H47.9031V34.3637H50.7117V31.5551Z" fill="white"/>
<path d="M53.518 31.5551H50.7094V34.3637H53.518V31.5551Z" fill="black"/>
<path d="M56.3289 31.5551H53.5203V34.3637H56.3289V31.5551Z" fill="black"/>
<path d="M59.1399 31.5551H56.3313V34.3637H59.1399V31.5551Z" fill="black"/>
<path d="M61.9461 31.5551H59.1375V34.3637H61.9461V31.5551Z" fill="white"/>
<path d="M64.7524 31.5551H61.9438V34.3637H64.7524V31.5551Z" fill="white"/>
<path d="M67.5633 31.5551H64.7547V34.3637H67.5633V31.5551Z" fill="black"/>
<path d="M70.3696 31.5551H67.561V34.3637H70.3696V31.5551Z" fill="black"/>
<path d="M73.1759 31.5551H70.3673V34.3637H73.1759V31.5551Z" fill="black"/>
<path d="M75.9868 31.5551H73.1782V34.3637H75.9868V31.5551Z" fill="white"/>
<path d="M78.7977 31.5551H75.9891V34.3637H78.7977V31.5551Z" fill="black"/>
<path d="M81.5994 31.5551H78.7908V34.3637H81.5994V31.5551Z" fill="white"/>
<path d="M84.4103 31.5551H81.6017V34.3637H84.4103V31.5551Z" fill="white"/>
<path d="M87.2166 31.5551H84.408V34.3637H87.2166V31.5551Z" fill="black"/>
<path d="M8.58857 34.3636H5.78113V37.1722H8.58973V34.3636H8.58857Z" fill="black"/>
<path d="M11.3995 34.3636H8.59204V37.1722H11.4006V34.3636H11.3995Z" fill="black"/>
<path d="M14.2058 34.3636H11.3983V37.1722H14.2069V34.3636H14.2058Z" fill="black"/>
<path d="M17.0167 34.3636H14.2081V37.1722H17.0167V34.3636Z" fill="black"/>
<path d="M19.8183 34.3636H17.0097V37.1722H19.8183V34.3636Z" fill="white"/>
<path d="M22.6292 34.3636H19.8206V37.1722H22.6292V34.3636Z" fill="black"/>
<path d="M25.4401 34.3636H22.6315V37.1722H25.4401V34.3636Z" fill="black"/>
<path d="M28.2464 34.3636H25.4378V37.1722H28.2464V34.3636Z" fill="black"/>
<path d="M31.0539 34.3636H28.2453V37.1722H31.0539V34.3636Z" fill="black"/>
<path d="M33.8648 34.3636H31.0562V37.1722H33.8648V34.3636Z" fill="black"/>
<path d="M36.6711 34.3636H33.8625V37.1722H36.6711V34.3636Z" fill="black"/>
<path d="M39.4773 34.3636H36.6687V37.1722H39.4773V34.3636Z" fill="white"/>
<path d="M42.2882 34.3636H39.4796V37.1722H42.2882V34.3636Z" fill="white"/>
<path d="M45.0992 34.3636H42.2906V37.1722H45.0992V34.3636Z" fill="black"/>
<path d="M47.9055 34.3636H45.0969V37.1722H47.9055V34.3636Z" fill="black"/>
<path d="M50.7117 34.3636H47.9031V37.1722H50.7117V34.3636Z" fill="white"/>
<path d="M53.518 34.3636H50.7094V37.1722H53.518V34.3636Z" fill="black"/>
<path d="M56.3289 34.3636H53.5203V37.1722H56.3289V34.3636Z" fill="white"/>
<path d="M59.1399 34.3636H56.3313V37.1722H59.1399V34.3636Z" fill="black"/>
<path d="M61.9461 34.3636H59.1375V37.1722H61.9461V34.3636Z" fill="black"/>
<path d="M64.7524 34.3636H61.9438V37.1722H64.7524V34.3636Z" fill="white"/>
<path d="M67.5633 34.3636H64.7547V37.1722H67.5633V34.3636Z" fill="black"/>
<path d="M70.3696 34.3636H67.561V37.1722H70.3696V34.3636Z" fill="black"/>
<path d="M73.1759 34.3636H70.3673V37.1722H73.1759V34.3636Z" fill="white"/>
<path d="M75.9868 34.3636H73.1782V37.1722H75.9868V34.3636Z" fill="black"/>
<path d="M78.7977 34.3636H75.9891V37.1722H78.7977V34.3636Z" fill="black"/>
<path d="M81.5994 34.3636H78.7908V37.1722H81.5994V34.3636Z" fill="black"/>
<path d="M84.4103 34.3636H81.6017V37.1722H84.4103V34.3636Z" fill="black"/>
<path d="M87.2166 34.3636H84.408V37.1722H87.2166V34.3636Z" fill="white"/>
<path d="M8.58857 37.171H5.78113V39.9796H8.58973V37.171H8.58857Z" fill="black"/>
<path d="M11.3995 37.171H8.59204V39.9796H11.4006V37.171H11.3995Z" fill="white"/>
<path d="M14.2058 37.171H11.3983V39.9796H14.2069V37.171H14.2058Z" fill="black"/>
<path d="M17.0167 37.171H14.2081V39.9796H17.0167V37.171Z" fill="white"/>
<path d="M19.8183 37.171H17.0097V39.9796H19.8183V37.171Z" fill="black"/>
<path d="M22.6292 37.171H19.8206V39.9796H22.6292V37.171Z" fill="white"/>
<path d="M25.4401 37.171H22.6315V39.9796H25.4401V37.171Z" fill="white"/>
<path d="M28.2464 37.171H25.4378V39.9796H28.2464V37.171Z" fill="white"/>
<path d="M31.0539 37.171H28.2453V39.9796H31.0539V37.171Z" fill="white"/>
<path d="M33.8648 37.171H31.0562V39.9796H33.8648V37.171Z" fill="white"/>
<path d="M36.6711 37.171H33.8625V39.9796H36.6711V37.171Z" fill="white"/>
<path d="M39.4773 37.171H36.6687V39.9796H39.4773V37.171Z" fill="white"/>
<path d="M42.2883 37.171H39.4797V39.9796H42.2883V37.171Z" fill="black"/>
<path d="M45.0992 37.171H42.2906V39.9796H45.0992V37.171Z" fill="black"/>
<path d="M47.9055 37.171H45.0969V39.9796H47.9055V37.171Z" fill="white"/>
<path d="M50.7117 37.171H47.9031V39.9796H50.7117V37.171Z" fill="white"/>
<path d="M53.518 37.171H50.7094V39.9796H53.518V37.171Z" fill="white"/>
<path d="M56.3289 37.171H53.5203V39.9796H56.3289V37.171Z" fill="white"/>
<path d="M59.1399 37.171H56.3313V39.9796H59.1399V37.171Z" fill="black"/>
<path d="M61.9461 37.171H59.1375V39.9796H61.9461V37.171Z" fill="white"/>
<path d="M64.7524 37.171H61.9438V39.9796H64.7524V37.171Z" fill="black"/>
<path d="M67.5633 37.171H64.7547V39.9796H67.5633V37.171Z" fill="black"/>
<path d="M70.3696 37.171H67.561V39.9796H70.3696V37.171Z" fill="black"/>
<path d="M73.1759 37.171H70.3673V39.9796H73.1759V37.171Z" fill="black"/>
<path d="M75.9868 37.171H73.1782V39.9796H75.9868V37.171Z" fill="white"/>
<path d="M78.7977 37.171H75.9891V39.9796H78.7977V37.171Z" fill="white"/>
<path d="M81.5994 37.171H78.7908V39.9796H81.5994V37.171Z" fill="black"/>
<path d="M84.4103 37.171H81.6017V39.9796H84.4103V37.171Z" fill="black"/>
<path d="M87.2166 37.171H84.408V39.9796H87.2166V37.171Z" fill="white"/>
<path d="M8.58857 39.9796H5.78113V42.7882H8.58973V39.9796H8.58857Z" fill="black"/>
<path d="M11.3995 39.9796H8.59204V42.7882H11.4006V39.9796H11.3995Z" fill="black"/>
<path d="M14.2058 39.9796H11.3983V42.7882H14.2069V39.9796H14.2058Z" fill="black"/>
<path d="M17.0167 39.9796H14.2081V42.7882H17.0167V39.9796Z" fill="white"/>
<path d="M19.8183 39.9796H17.0097V42.7882H19.8183V39.9796Z" fill="black"/>
<path d="M22.6292 39.9796H19.8206V42.7882H22.6292V39.9796Z" fill="white"/>
<path d="M25.4402 39.9796H22.6316V42.7882H25.4402V39.9796Z" fill="black"/>
<path d="M28.2464 39.9796H25.4378V42.7882H28.2464V39.9796Z" fill="white"/>
<path d="M31.0539 39.9796H28.2453V42.7882H31.0539V39.9796Z" fill="black"/>
<path d="M33.8648 39.9796H31.0562V42.7882H33.8648V39.9796Z" fill="white"/>
<path d="M36.6711 39.9796H33.8625V42.7882H36.6711V39.9796Z" fill="white"/>
<path d="M39.4773 39.9796H36.6687V42.7882H39.4773V39.9796Z" fill="white"/>
<path d="M42.2883 39.9796H39.4797V42.7882H42.2883V39.9796Z" fill="black"/>
<path d="M45.0992 39.9796H42.2906V42.7882H45.0992V39.9796Z" fill="black"/>
<path d="M47.9055 39.9796H45.0969V42.7882H47.9055V39.9796Z" fill="white"/>
<path d="M50.7117 39.9796H47.9031V42.7882H50.7117V39.9796Z" fill="white"/>
<path d="M53.518 39.9796H50.7094V42.7882H53.518V39.9796Z" fill="black"/>
<path d="M56.3289 39.9796H53.5203V42.7882H56.3289V39.9796Z" fill="white"/>
<path d="M59.1398 39.9796H56.3312V42.7882H59.1398V39.9796Z" fill="white"/>
<path d="M61.9461 39.9796H59.1375V42.7882H61.9461V39.9796Z" fill="black"/>
<path d="M64.7524 39.9796H61.9438V42.7882H64.7524V39.9796Z" fill="black"/>
<path d="M67.5633 39.9796H64.7547V42.7882H67.5633V39.9796Z" fill="black"/>
<path d="M70.3696 39.9796H67.561V42.7882H70.3696V39.9796Z" fill="black"/>
<path d="M73.1759 39.9796H70.3673V42.7882H73.1759V39.9796Z" fill="black"/>
<path d="M75.9868 39.9796H73.1782V42.7882H75.9868V39.9796Z" fill="white"/>
<path d="M78.7977 39.9796H75.9891V42.7882H78.7977V39.9796Z" fill="black"/>
<path d="M81.5994 39.9796H78.7908V42.7882H81.5994V39.9796Z" fill="white"/>
<path d="M84.4103 39.9796H81.6017V42.7882H84.4103V39.9796Z" fill="black"/>
<path d="M87.2166 39.9796H84.408V42.7882H87.2166V39.9796Z" fill="black"/>
<path d="M8.58857 42.7882H5.78113V45.5968H8.58973V42.7882H8.58857Z" fill="black"/>
<path d="M11.3995 42.7882H8.59204V45.5968H11.4006V42.7882H11.3995Z" fill="white"/>
<path d="M14.2058 42.7882H11.3983V45.5968H14.2069V42.7882H14.2058Z" fill="black"/>
<path d="M17.0167 42.7882H14.2081V45.5968H17.0167V42.7882Z" fill="white"/>
<path d="M19.8183 42.7882H17.0097V45.5968H19.8183V42.7882Z" fill="black"/>
<path d="M22.6292 42.7882H19.8206V45.5968H22.6292V42.7882Z" fill="black"/>
<path d="M25.4402 42.7882H22.6316V45.5968H25.4402V42.7882Z" fill="white"/>
<path d="M28.2464 42.7882H25.4378V45.5968H28.2464V42.7882Z" fill="black"/>
<path d="M31.0539 42.7882H28.2453V45.5968H31.0539V42.7882Z" fill="white"/>
<path d="M33.8648 42.7882H31.0562V45.5968H33.8648V42.7882Z" fill="white"/>
<path d="M36.6711 42.7882H33.8625V45.5968H36.6711V42.7882Z" fill="black"/>
<path d="M39.4773 42.7882H36.6687V45.5968H39.4773V42.7882Z" fill="white"/>
<path d="M42.2883 42.7882H39.4797V45.5968H42.2883V42.7882Z" fill="black"/>
<path d="M45.0992 42.7882H42.2906V45.5968H45.0992V42.7882Z" fill="white"/>
<path d="M47.9055 42.7882H45.0969V45.5968H47.9055V42.7882Z" fill="white"/>
<path d="M50.7117 42.7882H47.9031V45.5968H50.7117V42.7882Z" fill="white"/>
<path d="M53.518 42.7882H50.7094V45.5968H53.518V42.7882Z" fill="white"/>
<path d="M56.3289 42.7882H53.5203V45.5968H56.3289V42.7882Z" fill="black"/>
<path d="M59.1398 42.7882H56.3312V45.5968H59.1398V42.7882Z" fill="black"/>
<path d="M61.9461 42.7882H59.1375V45.5968H61.9461V42.7882Z" fill="black"/>
<path d="M64.7524 42.7882H61.9438V45.5968H64.7524V42.7882Z" fill="black"/>
<path d="M67.5633 42.7882H64.7547V45.5968H67.5633V42.7882Z" fill="black"/>
<path d="M70.3696 42.7882H67.561V45.5968H70.3696V42.7882Z" fill="white"/>
<path d="M73.1759 42.7882H70.3673V45.5968H73.1759V42.7882Z" fill="white"/>
<path d="M75.9868 42.7882H73.1782V45.5968H75.9868V42.7882Z" fill="white"/>
<path d="M78.7977 42.7882H75.9891V45.5968H78.7977V42.7882Z" fill="white"/>
<path d="M81.5994 42.7882H78.7908V45.5968H81.5994V42.7882Z" fill="white"/>
<path d="M84.4103 42.7882H81.6017V45.5968H84.4103V42.7882Z" fill="white"/>
<path d="M87.2166 42.7882H84.408V45.5968H87.2166V42.7882Z" fill="white"/>
<path d="M8.58857 45.5957H5.78113V48.4043H8.58973V45.5957H8.58857Z" fill="white"/>
<path d="M11.3995 45.5957H8.59204V48.4043H11.4006V45.5957H11.3995Z" fill="black"/>
<path d="M14.2058 45.5957H11.3983V48.4043H14.2069V45.5957H14.2058Z" fill="black"/>
<path d="M17.0167 45.5957H14.2081V48.4043H17.0167V45.5957Z" fill="black"/>
<path d="M19.8183 45.5957H17.0097V48.4043H19.8183V45.5957Z" fill="white"/>
<path d="M22.6292 45.5957H19.8206V48.4043H22.6292V45.5957Z" fill="white"/>
<path d="M25.4402 45.5957H22.6316V48.4043H25.4402V45.5957Z" fill="black"/>
<path d="M28.2464 45.5957H25.4378V48.4043H28.2464V45.5957Z" fill="black"/>
<path d="M31.0539 45.5957H28.2453V48.4043H31.0539V45.5957Z" fill="white"/>
<path d="M33.8648 45.5957H31.0562V48.4043H33.8648V45.5957Z" fill="white"/>
<path d="M36.6711 45.5957H33.8625V48.4043H36.6711V45.5957Z" fill="white"/>
<path d="M39.4773 45.5957H36.6687V48.4043H39.4773V45.5957Z" fill="black"/>
<path d="M42.2883 45.5957H39.4797V48.4043H42.2883V45.5957Z" fill="white"/>
<path d="M45.0992 45.5957H42.2906V48.4043H45.0992V45.5957Z" fill="black"/>
<path d="M47.9055 45.5957H45.0969V48.4043H47.9055V45.5957Z" fill="black"/>
<path d="M50.7117 45.5957H47.9031V48.4043H50.7117V45.5957Z" fill="white"/>
<path d="M53.518 45.5957H50.7094V48.4043H53.518V45.5957Z" fill="black"/>
<path d="M56.3289 45.5957H53.5203V48.4043H56.3289V45.5957Z" fill="white"/>
<path d="M59.1399 45.5957H56.3313V48.4043H59.1399V45.5957Z" fill="black"/>
<path d="M61.9461 45.5957H59.1375V48.4043H61.9461V45.5957Z" fill="white"/>
<path d="M64.7524 45.5957H61.9438V48.4043H64.7524V45.5957Z" fill="white"/>
<path d="M67.5633 45.5957H64.7547V48.4043H67.5633V45.5957Z" fill="black"/>
<path d="M70.3696 45.5957H67.561V48.4043H70.3696V45.5957Z" fill="white"/>
<path d="M73.1759 45.5957H70.3673V48.4043H73.1759V45.5957Z" fill="black"/>
<path d="M75.9868 45.5957H73.1782V48.4043H75.9868V45.5957Z" fill="white"/>
<path d="M78.7977 45.5957H75.9891V48.4043H78.7977V45.5957Z" fill="black"/>
<path d="M81.5994 45.5957H78.7908V48.4043H81.5994V45.5957Z" fill="black"/>
<path d="M84.4103 45.5957H81.6017V48.4043H84.4103V45.5957Z" fill="black"/>
<path d="M87.2166 45.5957H84.408V48.4043H87.2166V45.5957Z" fill="black"/>
<path d="M8.58857 48.4043H5.78113V51.2129H8.58973V48.4043H8.58857Z" fill="white"/>
<path d="M11.3995 48.4043H8.59204V51.2129H11.4006V48.4043H11.3995Z" fill="white"/>
<path d="M14.2058 48.4043H11.3983V51.2129H14.2069V48.4043H14.2058Z" fill="white"/>
<path d="M17.0167 48.4043H14.2081V51.2129H17.0167V48.4043Z" fill="black"/>
<path d="M19.8183 48.4043H17.0097V51.2129H19.8183V48.4043Z" fill="white"/>
<path d="M22.6292 48.4043H19.8206V51.2129H22.6292V48.4043Z" fill="black"/>
<path d="M25.4402 48.4043H22.6316V51.2129H25.4402V48.4043Z" fill="white"/>
<path d="M28.2464 48.4043H25.4378V51.2129H28.2464V48.4043Z" fill="white"/>
<path d="M31.0539 48.4043H28.2453V51.2129H31.0539V48.4043Z" fill="white"/>
<path d="M33.8648 48.4043H31.0562V51.2129H33.8648V48.4043Z" fill="black"/>
<path d="M36.6711 48.4043H33.8625V51.2129H36.6711V48.4043Z" fill="black"/>
<path d="M39.4773 48.4043H36.6687V51.2129H39.4773V48.4043Z" fill="black"/>
<path d="M42.2882 48.4043H39.4796V51.2129H42.2882V48.4043Z" fill="black"/>
<path d="M45.0992 48.4043H42.2906V51.2129H45.0992V48.4043Z" fill="black"/>
<path d="M47.9055 48.4043H45.0969V51.2129H47.9055V48.4043Z" fill="white"/>
<path d="M50.7117 48.4043H47.9031V51.2129H50.7117V48.4043Z" fill="black"/>
<path d="M53.518 48.4043H50.7094V51.2129H53.518V48.4043Z" fill="black"/>
<path d="M56.3289 48.4043H53.5203V51.2129H56.3289V48.4043Z" fill="black"/>
<path d="M59.1399 48.4043H56.3313V51.2129H59.1399V48.4043Z" fill="black"/>
<path d="M61.9461 48.4043H59.1375V51.2129H61.9461V48.4043Z" fill="white"/>
<path d="M64.7524 48.4043H61.9438V51.2129H64.7524V48.4043Z" fill="black"/>
<path d="M67.5633 48.4043H64.7547V51.2129H67.5633V48.4043Z" fill="white"/>
<path d="M70.3696 48.4043H67.561V51.2129H70.3696V48.4043Z" fill="black"/>
<path d="M73.1759 48.4043H70.3673V51.2129H73.1759V48.4043Z" fill="white"/>
<path d="M75.9868 48.4043H73.1782V51.2129H75.9868V48.4043Z" fill="black"/>
<path d="M78.7977 48.4043H75.9891V51.2129H78.7977V48.4043Z" fill="black"/>
<path d="M81.5994 48.4043H78.7908V51.2129H81.5994V48.4043Z" fill="white"/>
<path d="M84.4103 48.4043H81.6017V51.2129H84.4103V48.4043Z" fill="black"/>
<path d="M87.2166 48.4043H84.408V51.2129H87.2166V48.4043Z" fill="white"/>
<path d="M8.58857 51.2129H5.78113V54.0215H8.58973V51.2129H8.58857Z" fill="black"/>
<path d="M11.3995 51.2129H8.59204V54.0215H11.4006V51.2129H11.3995Z" fill="black"/>
<path d="M14.2058 51.2129H11.3983V54.0215H14.2069V51.2129H14.2058Z" fill="white"/>
<path d="M17.0167 51.2129H14.2081V54.0215H17.0167V51.2129Z" fill="white"/>
<path d="M19.8183 51.2129H17.0097V54.0215H19.8183V51.2129Z" fill="black"/>
<path d="M22.6292 51.2129H19.8206V54.0215H22.6292V51.2129Z" fill="black"/>
<path d="M25.4402 51.2129H22.6316V54.0215H25.4402V51.2129Z" fill="black"/>
<path d="M28.2464 51.2129H25.4378V54.0215H28.2464V51.2129Z" fill="white"/>
<path d="M31.0539 51.2129H28.2453V54.0215H31.0539V51.2129Z" fill="black"/>
<path d="M33.8648 51.2129H31.0562V54.0215H33.8648V51.2129Z" fill="white"/>
<path d="M36.6711 51.2129H33.8625V54.0215H36.6711V51.2129Z" fill="white"/>
<path d="M39.4773 51.2129H36.6687V54.0215H39.4773V51.2129Z" fill="white"/>
<path d="M42.2882 51.2129H39.4796V54.0215H42.2882V51.2129Z" fill="white"/>
<path d="M45.0992 51.2129H42.2906V54.0215H45.0992V51.2129Z" fill="black"/>
<path d="M47.9055 51.2129H45.0969V54.0215H47.9055V51.2129Z" fill="white"/>
<path d="M50.7117 51.2129H47.9031V54.0215H50.7117V51.2129Z" fill="white"/>
<path d="M53.518 51.2129H50.7094V54.0215H53.518V51.2129Z" fill="black"/>
<path d="M56.3289 51.2129H53.5203V54.0215H56.3289V51.2129Z" fill="black"/>
<path d="M59.1399 51.2129H56.3313V54.0215H59.1399V51.2129Z" fill="white"/>
<path d="M61.9461 51.2129H59.1375V54.0215H61.9461V51.2129Z" fill="white"/>
<path d="M64.7524 51.2129H61.9438V54.0215H64.7524V51.2129Z" fill="black"/>
<path d="M67.5633 51.2129H64.7547V54.0215H67.5633V51.2129Z" fill="black"/>
<path d="M70.3696 51.2129H67.561V54.0215H70.3696V51.2129Z" fill="white"/>
<path d="M73.1759 51.2129H70.3673V54.0215H73.1759V51.2129Z" fill="white"/>
<path d="M75.9868 51.2129H73.1782V54.0215H75.9868V51.2129Z" fill="white"/>
<path d="M78.7977 51.2129H75.9891V54.0215H78.7977V51.2129Z" fill="white"/>
<path d="M81.5993 51.2129H78.7907V54.0215H81.5993V51.2129Z" fill="white"/>
<path d="M84.4103 51.2129H81.6017V54.0215H84.4103V51.2129Z" fill="black"/>
<path d="M87.2166 51.2129H84.408V54.0215H87.2166V51.2129Z" fill="white"/>
<path d="M8.58857 54.0204H5.78113V56.829H8.58973V54.0204H8.58857Z" fill="white"/>
<path d="M11.3995 54.0204H8.59204V56.829H11.4006V54.0204H11.3995Z" fill="black"/>
<path d="M14.2058 54.0204H11.3983V56.829H14.2069V54.0204H14.2058Z" fill="white"/>
<path d="M17.0167 54.0204H14.2081V56.829H17.0167V54.0204Z" fill="white"/>
<path d="M19.8183 54.0204H17.0097V56.829H19.8183V54.0204Z" fill="black"/>
<path d="M22.6292 54.0204H19.8206V56.829H22.6292V54.0204Z" fill="white"/>
<path d="M25.4401 54.0204H22.6315V56.829H25.4401V54.0204Z" fill="white"/>
<path d="M28.2464 54.0204H25.4378V56.829H28.2464V54.0204Z" fill="white"/>
<path d="M31.0539 54.0204H28.2453V56.829H31.0539V54.0204Z" fill="white"/>
<path d="M33.8648 54.0204H31.0562V56.829H33.8648V54.0204Z" fill="black"/>
<path d="M36.6711 54.0204H33.8625V56.829H36.6711V54.0204Z" fill="white"/>
<path d="M39.4773 54.0204H36.6687V56.829H39.4773V54.0204Z" fill="black"/>
<path d="M42.2882 54.0204H39.4796V56.829H42.2882V54.0204Z" fill="black"/>
<path d="M45.0992 54.0204H42.2906V56.829H45.0992V54.0204Z" fill="white"/>
<path d="M47.9055 54.0204H45.0969V56.829H47.9055V54.0204Z" fill="white"/>
<path d="M50.7117 54.0204H47.9031V56.829H50.7117V54.0204Z" fill="white"/>
<path d="M53.518 54.0204H50.7094V56.829H53.518V54.0204Z" fill="white"/>
<path d="M56.3289 54.0204H53.5203V56.829H56.3289V54.0204Z" fill="white"/>
<path d="M59.1399 54.0204H56.3313V56.829H59.1399V54.0204Z" fill="white"/>
<path d="M61.9461 54.0204H59.1375V56.829H61.9461V54.0204Z" fill="white"/>
<path d="M64.7524 54.0204H61.9438V56.829H64.7524V54.0204Z" fill="white"/>
<path d="M67.5633 54.0204H64.7547V56.829H67.5633V54.0204Z" fill="black"/>
<path d="M70.3696 54.0204H67.561V56.829H70.3696V54.0204Z" fill="black"/>
<path d="M73.1759 54.0204H70.3673V56.829H73.1759V54.0204Z" fill="black"/>
<path d="M75.9868 54.0204H73.1782V56.829H75.9868V54.0204Z" fill="white"/>
<path d="M78.7977 54.0204H75.9891V56.829H78.7977V54.0204Z" fill="black"/>
<path d="M81.5994 54.0204H78.7908V56.829H81.5994V54.0204Z" fill="white"/>
<path d="M84.4103 54.0204H81.6017V56.829H84.4103V54.0204Z" fill="white"/>
<path d="M87.2166 54.0204H84.408V56.829H87.2166V54.0204Z" fill="black"/>
<path d="M8.58857 56.829H5.78113V59.6376H8.58973V56.829H8.58857Z" fill="black"/>
<path d="M11.3995 56.829H8.59204V59.6376H11.4006V56.829H11.3995Z" fill="white"/>
<path d="M14.2058 56.829H11.3983V59.6376H14.2069V56.829H14.2058Z" fill="black"/>
<path d="M17.0167 56.829H14.2081V59.6376H17.0167V56.829Z" fill="black"/>
<path d="M19.8183 56.829H17.0097V59.6376H19.8183V56.829Z" fill="white"/>
<path d="M22.6292 56.829H19.8206V59.6376H22.6292V56.829Z" fill="white"/>
<path d="M25.4402 56.829H22.6316V59.6376H25.4402V56.829Z" fill="black"/>
<path d="M28.2464 56.829H25.4378V59.6376H28.2464V56.829Z" fill="black"/>
<path d="M31.0539 56.829H28.2453V59.6376H31.0539V56.829Z" fill="black"/>
<path d="M33.8648 56.829H31.0562V59.6376H33.8648V56.829Z" fill="white"/>
<path d="M36.6711 56.829H33.8625V59.6376H36.6711V56.829Z" fill="white"/>
<path d="M39.4773 56.829H36.6687V59.6376H39.4773V56.829Z" fill="white"/>
<path d="M42.2883 56.829H39.4797V59.6376H42.2883V56.829Z" fill="black"/>
<path d="M45.0992 56.829H42.2906V59.6376H45.0992V56.829Z" fill="black"/>
<path d="M47.9055 56.829H45.0969V59.6376H47.9055V56.829Z" fill="white"/>
<path d="M50.7117 56.829H47.9031V59.6376H50.7117V56.829Z" fill="white"/>
<path d="M53.518 56.829H50.7094V59.6376H53.518V56.829Z" fill="black"/>
<path d="M56.3289 56.829H53.5203V59.6376H56.3289V56.829Z" fill="white"/>
<path d="M59.1398 56.829H56.3312V59.6376H59.1398V56.829Z" fill="white"/>
<path d="M61.9461 56.829H59.1375V59.6376H61.9461V56.829Z" fill="white"/>
<path d="M64.7524 56.829H61.9438V59.6376H64.7524V56.829Z" fill="white"/>
<path d="M67.5633 56.829H64.7547V59.6376H67.5633V56.829Z" fill="black"/>
<path d="M70.3696 56.829H67.561V59.6376H70.3696V56.829Z" fill="white"/>
<path d="M73.1759 56.829H70.3673V59.6376H73.1759V56.829Z" fill="black"/>
<path d="M75.9868 56.829H73.1782V59.6376H75.9868V56.829Z" fill="black"/>
<path d="M78.7977 56.829H75.9891V59.6376H78.7977V56.829Z" fill="white"/>
<path d="M81.5994 56.829H78.7908V59.6376H81.5994V56.829Z" fill="white"/>
<path d="M84.4103 56.829H81.6017V59.6376H84.4103V56.829Z" fill="black"/>
<path d="M87.2166 56.829H84.408V59.6376H87.2166V56.829Z" fill="black"/>
<path d="M8.58857 59.6364H5.78113V62.445H8.58973V59.6364H8.58857Z" fill="white"/>
<path d="M11.3995 59.6364H8.59204V62.445H11.4006V59.6364H11.3995Z" fill="white"/>
<path d="M14.2058 59.6364H11.3983V62.445H14.2069V59.6364H14.2058Z" fill="white"/>
<path d="M17.0167 59.6364H14.2081V62.445H17.0167V59.6364Z" fill="black"/>
<path d="M19.8183 59.6364H17.0097V62.445H19.8183V59.6364Z" fill="white"/>
<path d="M22.6292 59.6364H19.8206V62.445H22.6292V59.6364Z" fill="white"/>
<path d="M25.4402 59.6364H22.6316V62.445H25.4402V59.6364Z" fill="white"/>
<path d="M28.2464 59.6364H25.4378V62.445H28.2464V59.6364Z" fill="white"/>
<path d="M31.0539 59.6364H28.2453V62.445H31.0539V59.6364Z" fill="black"/>
<path d="M33.8648 59.6364H31.0562V62.445H33.8648V59.6364Z" fill="white"/>
<path d="M36.6711 59.6364H33.8625V62.445H36.6711V59.6364Z" fill="white"/>
<path d="M39.4773 59.6364H36.6687V62.445H39.4773V59.6364Z" fill="white"/>
<path d="M42.2882 59.6364H39.4796V62.445H42.2882V59.6364Z" fill="white"/>
<path d="M45.0992 59.6364H42.2906V62.445H45.0992V59.6364Z" fill="white"/>
<path d="M47.9055 59.6364H45.0969V62.445H47.9055V59.6364Z" fill="black"/>
<path d="M50.7117 59.6364H47.9031V62.445H50.7117V59.6364Z" fill="black"/>
<path d="M53.518 59.6364H50.7094V62.445H53.518V59.6364Z" fill="black"/>
<path d="M56.3289 59.6364H53.5203V62.445H56.3289V59.6364Z" fill="black"/>
<path d="M59.1399 59.6364H56.3313V62.445H59.1399V59.6364Z" fill="white"/>
<path d="M61.9461 59.6364H59.1375V62.445H61.9461V59.6364Z" fill="white"/>
<path d="M64.7524 59.6364H61.9438V62.445H64.7524V59.6364Z" fill="white"/>
<path d="M67.5633 59.6364H64.7547V62.445H67.5633V59.6364Z" fill="black"/>
<path d="M70.3696 59.6364H67.561V62.445H70.3696V59.6364Z" fill="white"/>
<path d="M73.1759 59.6364H70.3673V62.445H73.1759V59.6364Z" fill="black"/>
<path d="M75.9868 59.6364H73.1782V62.445H75.9868V59.6364Z" fill="black"/>
<path d="M78.7977 59.6364H75.9891V62.445H78.7977V59.6364Z" fill="white"/>
<path d="M81.5994 59.6364H78.7908V62.445H81.5994V59.6364Z" fill="white"/>
<path d="M84.4103 59.6364H81.6017V62.445H84.4103V59.6364Z" fill="black"/>
<path d="M87.2166 59.6364H84.408V62.445H87.2166V59.6364Z" fill="black"/>
<path d="M8.58857 62.4449H5.78113V65.2535H8.58973V62.4449H8.58857Z" fill="black"/>
<path d="M11.3995 62.4449H8.59204V65.2535H11.4006V62.4449H11.3995Z" fill="white"/>
<path d="M14.2058 62.4449H11.3983V65.2535H14.2069V62.4449H14.2058Z" fill="white"/>
<path d="M17.0167 62.4449H14.2081V65.2535H17.0167V62.4449Z" fill="white"/>
<path d="M19.8183 62.4449H17.0097V65.2535H19.8183V62.4449Z" fill="black"/>
<path d="M22.6292 62.4449H19.8206V65.2535H22.6292V62.4449Z" fill="black"/>
<path d="M25.4402 62.4449H22.6316V65.2535H25.4402V62.4449Z" fill="black"/>
<path d="M28.2464 62.4449H25.4378V65.2535H28.2464V62.4449Z" fill="black"/>
<path d="M31.0539 62.4449H28.2453V65.2535H31.0539V62.4449Z" fill="black"/>
<path d="M33.8648 62.4449H31.0562V65.2535H33.8648V62.4449Z" fill="white"/>
<path d="M36.6711 62.4449H33.8625V65.2535H36.6711V62.4449Z" fill="white"/>
<path d="M39.4773 62.4449H36.6687V65.2535H39.4773V62.4449Z" fill="black"/>
<path d="M42.2883 62.4449H39.4797V65.2535H42.2883V62.4449Z" fill="white"/>
<path d="M45.0992 62.4449H42.2906V65.2535H45.0992V62.4449Z" fill="black"/>
<path d="M47.9055 62.4449H45.0969V65.2535H47.9055V62.4449Z" fill="black"/>
<path d="M50.7117 62.4449H47.9031V65.2535H50.7117V62.4449Z" fill="white"/>
<path d="M53.518 62.4449H50.7094V65.2535H53.518V62.4449Z" fill="white"/>
<path d="M56.3289 62.4449H53.5203V65.2535H56.3289V62.4449Z" fill="white"/>
<path d="M59.1399 62.4449H56.3313V65.2535H59.1399V62.4449Z" fill="black"/>
<path d="M61.9461 62.4449H59.1375V65.2535H61.9461V62.4449Z" fill="black"/>
<path d="M64.7524 62.4449H61.9438V65.2535H64.7524V62.4449Z" fill="black"/>
<path d="M67.5633 62.4449H64.7547V65.2535H67.5633V62.4449Z" fill="black"/>
<path d="M70.3696 62.4449H67.561V65.2535H70.3696V62.4449Z" fill="black"/>
<path d="M73.1759 62.4449H70.3673V65.2535H73.1759V62.4449Z" fill="black"/>
<path d="M75.9868 62.4449H73.1782V65.2535H75.9868V62.4449Z" fill="black"/>
<path d="M78.7977 62.4449H75.9891V65.2535H78.7977V62.4449Z" fill="white"/>
<path d="M81.5994 62.4449H78.7908V65.2535H81.5994V62.4449Z" fill="black"/>
<path d="M84.4103 62.4449H81.6017V65.2535H84.4103V62.4449Z" fill="white"/>
<path d="M87.2166 62.4449H84.408V65.2535H87.2166V62.4449Z" fill="white"/>
<path d="M8.58857 65.2535H5.78113V68.0621H8.58973V65.2535H8.58857Z" fill="white"/>
<path d="M11.3995 65.2535H8.59204V68.0621H11.4006V65.2535H11.3995Z" fill="white"/>
<path d="M14.2058 65.2535H11.3983V68.0621H14.2069V65.2535H14.2058Z" fill="white"/>
<path d="M17.0167 65.2535H14.2081V68.0621H17.0167V65.2535Z" fill="white"/>
<path d="M19.8183 65.2535H17.0097V68.0621H19.8183V65.2535Z" fill="white"/>
<path d="M22.6292 65.2535H19.8206V68.0621H22.6292V65.2535Z" fill="white"/>
<path d="M25.4402 65.2535H22.6316V68.0621H25.4402V65.2535Z" fill="white"/>
<path d="M28.2464 65.2535H25.4378V68.0621H28.2464V65.2535Z" fill="white"/>
<path d="M31.0539 65.2535H28.2453V68.0621H31.0539V65.2535Z" fill="black"/>
<path d="M33.8648 65.2535H31.0562V68.0621H33.8648V65.2535Z" fill="white"/>
<path d="M36.6711 65.2535H33.8625V68.0621H36.6711V65.2535Z" fill="black"/>
<path d="M39.4773 65.2535H36.6687V68.0621H39.4773V65.2535Z" fill="white"/>
<path d="M42.2883 65.2535H39.4797V68.0621H42.2883V65.2535Z" fill="black"/>
<path d="M45.0992 65.2535H42.2906V68.0621H45.0992V65.2535Z" fill="black"/>
<path d="M47.9055 65.2535H45.0969V68.0621H47.9055V65.2535Z" fill="black"/>
<path d="M50.7117 65.2535H47.9031V68.0621H50.7117V65.2535Z" fill="white"/>
<path d="M53.518 65.2535H50.7094V68.0621H53.518V65.2535Z" fill="black"/>
<path d="M56.3289 65.2535H53.5203V68.0621H56.3289V65.2535Z" fill="white"/>
<path d="M59.1399 65.2535H56.3313V68.0621H59.1399V65.2535Z" fill="black"/>
<path d="M61.9461 65.2535H59.1375V68.0621H61.9461V65.2535Z" fill="black"/>
<path d="M64.7524 65.2535H61.9438V68.0621H64.7524V65.2535Z" fill="black"/>
<path d="M67.5633 65.2535H64.7547V68.0621H67.5633V65.2535Z" fill="white"/>
<path d="M70.3696 65.2535H67.561V68.0621H70.3696V65.2535Z" fill="white"/>
<path d="M73.1759 65.2535H70.3673V68.0621H73.1759V65.2535Z" fill="white"/>
<path d="M75.9868 65.2535H73.1782V68.0621H75.9868V65.2535Z" fill="black"/>
<path d="M78.7977 65.2535H75.9891V68.0621H78.7977V65.2535Z" fill="white"/>
<path d="M81.5994 65.2535H78.7908V68.0621H81.5994V65.2535Z" fill="black"/>
<path d="M84.4103 65.2535H81.6017V68.0621H84.4103V65.2535Z" fill="black"/>
<path d="M87.2166 65.2535H84.408V68.0621H87.2166V65.2535Z" fill="black"/>
<path d="M8.58857 68.061H5.78113V70.8696H8.58973V68.061H8.58857Z" fill="black"/>
<path d="M11.3995 68.061H8.59204V70.8696H11.4006V68.061H11.3995Z" fill="black"/>
<path d="M14.2058 68.061H11.3983V70.8696H14.2069V68.061H14.2058Z" fill="black"/>
<path d="M17.0167 68.061H14.2081V70.8696H17.0167V68.061Z" fill="black"/>
<path d="M19.8183 68.061H17.0097V70.8696H19.8183V68.061Z" fill="black"/>
<path d="M22.6292 68.061H19.8206V70.8696H22.6292V68.061Z" fill="black"/>
<path d="M25.4402 68.061H22.6316V70.8696H25.4402V68.061Z" fill="black"/>
<path d="M28.2464 68.061H25.4378V70.8696H28.2464V68.061Z" fill="white"/>
<path d="M31.0539 68.061H28.2453V70.8696H31.0539V68.061Z" fill="black"/>
<path d="M33.8648 68.061H31.0562V70.8696H33.8648V68.061Z" fill="black"/>
<path d="M36.6711 68.061H33.8625V70.8696H36.6711V68.061Z" fill="white"/>
<path d="M39.4773 68.061H36.6687V70.8696H39.4773V68.061Z" fill="white"/>
<path d="M42.2883 68.061H39.4797V70.8696H42.2883V68.061Z" fill="black"/>
<path d="M45.0992 68.061H42.2906V70.8696H45.0992V68.061Z" fill="black"/>
<path d="M47.9055 68.061H45.0969V70.8696H47.9055V68.061Z" fill="black"/>
<path d="M50.7117 68.061H47.9031V70.8696H50.7117V68.061Z" fill="white"/>
<path d="M53.518 68.061H50.7094V70.8696H53.518V68.061Z" fill="white"/>
<path d="M56.3289 68.061H53.5203V70.8696H56.3289V68.061Z" fill="white"/>
<path d="M59.1399 68.061H56.3313V70.8696H59.1399V68.061Z" fill="black"/>
<path d="M61.9461 68.061H59.1375V70.8696H61.9461V68.061Z" fill="white"/>
<path d="M64.7524 68.061H61.9438V70.8696H64.7524V68.061Z" fill="black"/>
<path d="M67.5633 68.061H64.7547V70.8696H67.5633V68.061Z" fill="white"/>
<path d="M70.3696 68.061H67.561V70.8696H70.3696V68.061Z" fill="black"/>
<path d="M73.1759 68.061H70.3673V70.8696H73.1759V68.061Z" fill="white"/>
<path d="M75.9868 68.061H73.1782V70.8696H75.9868V68.061Z" fill="black"/>
<path d="M78.7977 68.061H75.9891V70.8696H78.7977V68.061Z" fill="white"/>
<path d="M81.5994 68.061H78.7908V70.8696H81.5994V68.061Z" fill="white"/>
<path d="M84.4103 68.061H81.6017V70.8696H84.4103V68.061Z" fill="black"/>
<path d="M87.2166 68.061H84.408V70.8696H87.2166V68.061Z" fill="white"/>
<path d="M8.58857 70.8696H5.78113V73.6782H8.58973V70.8696H8.58857Z" fill="black"/>
<path d="M11.3995 70.8696H8.59204V73.6782H11.4006V70.8696H11.3995Z" fill="white"/>
<path d="M14.2058 70.8696H11.3983V73.6782H14.2069V70.8696H14.2058Z" fill="white"/>
<path d="M17.0167 70.8696H14.2081V73.6782H17.0167V70.8696Z" fill="white"/>
<path d="M19.8183 70.8696H17.0097V73.6782H19.8183V70.8696Z" fill="white"/>
<path d="M22.6292 70.8696H19.8206V73.6782H22.6292V70.8696Z" fill="white"/>
<path d="M25.4402 70.8696H22.6316V73.6782H25.4402V70.8696Z" fill="black"/>
<path d="M28.2464 70.8696H25.4378V73.6782H28.2464V70.8696Z" fill="white"/>
<path d="M31.0539 70.8696H28.2453V73.6782H31.0539V70.8696Z" fill="white"/>
<path d="M33.8648 70.8696H31.0562V73.6782H33.8648V70.8696Z" fill="white"/>
<path d="M36.6711 70.8696H33.8625V73.6782H36.6711V70.8696Z" fill="white"/>
<path d="M39.4774 70.8696H36.6688V73.6782H39.4774V70.8696Z" fill="white"/>
<path d="M42.2883 70.8696H39.4797V73.6782H42.2883V70.8696Z" fill="black"/>
<path d="M45.0992 70.8696H42.2906V73.6782H45.0992V70.8696Z" fill="black"/>
<path d="M47.9055 70.8696H45.0969V73.6782H47.9055V70.8696Z" fill="white"/>
<path d="M50.7117 70.8696H47.9031V73.6782H50.7117V70.8696Z" fill="white"/>
<path d="M53.518 70.8696H50.7094V73.6782H53.518V70.8696Z" fill="black"/>
<path d="M56.3289 70.8696H53.5203V73.6782H56.3289V70.8696Z" fill="white"/>
<path d="M59.1398 70.8696H56.3312V73.6782H59.1398V70.8696Z" fill="white"/>
<path d="M61.9461 70.8696H59.1375V73.6782H61.9461V70.8696Z" fill="white"/>
<path d="M64.7524 70.8696H61.9438V73.6782H64.7524V70.8696Z" fill="black"/>
<path d="M67.5633 70.8696H64.7547V73.6782H67.5633V70.8696Z" fill="white"/>
<path d="M70.3696 70.8696H67.561V73.6782H70.3696V70.8696Z" fill="white"/>
<path d="M73.1759 70.8696H70.3673V73.6782H73.1759V70.8696Z" fill="white"/>
<path d="M75.9868 70.8696H73.1782V73.6782H75.9868V70.8696Z" fill="black"/>
<path d="M78.7977 70.8696H75.9891V73.6782H78.7977V70.8696Z" fill="black"/>
<path d="M81.5994 70.8696H78.7908V73.6782H81.5994V70.8696Z" fill="black"/>
<path d="M84.4103 70.8696H81.6017V73.6782H84.4103V70.8696Z" fill="black"/>
<path d="M87.2166 70.8696H84.408V73.6782H87.2166V70.8696Z" fill="white"/>
<path d="M8.58857 73.677H5.78113V76.4856H8.58973V73.677H8.58857Z" fill="black"/>
<path d="M11.3995 73.677H8.59204V76.4856H11.4006V73.677H11.3995Z" fill="white"/>
<path d="M14.2058 73.677H11.3983V76.4856H14.2069V73.677H14.2058Z" fill="black"/>
<path d="M17.0167 73.677H14.2081V76.4856H17.0167V73.677Z" fill="black"/>
<path d="M19.8183 73.677H17.0097V76.4856H19.8183V73.677Z" fill="black"/>
<path d="M22.6292 73.677H19.8206V76.4856H22.6292V73.677Z" fill="white"/>
<path d="M25.4402 73.677H22.6316V76.4856H25.4402V73.677Z" fill="black"/>
<path d="M28.2464 73.677H25.4378V76.4856H28.2464V73.677Z" fill="white"/>
<path d="M31.0539 73.677H28.2453V76.4856H31.0539V73.677Z" fill="white"/>
<path d="M33.8648 73.677H31.0562V76.4856H33.8648V73.677Z" fill="black"/>
<path d="M36.6711 73.677H33.8625V76.4856H36.6711V73.677Z" fill="white"/>
<path d="M39.4773 73.677H36.6687V76.4856H39.4773V73.677Z" fill="white"/>
<path d="M42.2882 73.677H39.4796V76.4856H42.2882V73.677Z" fill="white"/>
<path d="M45.0992 73.677H42.2906V76.4856H45.0992V73.677Z" fill="black"/>
<path d="M47.9055 73.677H45.0969V76.4856H47.9055V73.677Z" fill="white"/>
<path d="M50.7117 73.677H47.9031V76.4856H50.7117V73.677Z" fill="white"/>
<path d="M53.518 73.677H50.7094V76.4856H53.518V73.677Z" fill="black"/>
<path d="M56.3289 73.677H53.5203V76.4856H56.3289V73.677Z" fill="black"/>
<path d="M59.1399 73.677H56.3313V76.4856H59.1399V73.677Z" fill="black"/>
<path d="M61.9461 73.677H59.1375V76.4856H61.9461V73.677Z" fill="white"/>
<path d="M64.7524 73.677H61.9438V76.4856H64.7524V73.677Z" fill="black"/>
<path d="M67.5633 73.677H64.7547V76.4856H67.5633V73.677Z" fill="black"/>
<path d="M70.3696 73.677H67.561V76.4856H70.3696V73.677Z" fill="black"/>
<path d="M73.1759 73.677H70.3673V76.4856H73.1759V73.677Z" fill="black"/>
<path d="M75.9868 73.677H73.1782V76.4856H75.9868V73.677Z" fill="black"/>
<path d="M78.7977 73.677H75.9891V76.4856H78.7977V73.677Z" fill="white"/>
<path d="M81.5994 73.677H78.7908V76.4856H81.5994V73.677Z" fill="white"/>
<path d="M84.4103 73.677H81.6017V76.4856H84.4103V73.677Z" fill="white"/>
<path d="M87.2166 73.677H84.408V76.4856H87.2166V73.677Z" fill="black"/>
<path d="M8.58857 76.4856H5.78113V79.2942H8.58973V76.4856H8.58857Z" fill="black"/>
<path d="M11.3995 76.4856H8.59204V79.2942H11.4006V76.4856H11.3995Z" fill="white"/>
<path d="M14.2058 76.4856H11.3983V79.2942H14.2069V76.4856H14.2058Z" fill="black"/>
<path d="M17.0167 76.4856H14.2081V79.2942H17.0167V76.4856Z" fill="black"/>
<path d="M19.8183 76.4856H17.0097V79.2942H19.8183V76.4856Z" fill="black"/>
<path d="M22.6292 76.4856H19.8206V79.2942H22.6292V76.4856Z" fill="white"/>
<path d="M25.4402 76.4856H22.6316V79.2942H25.4402V76.4856Z" fill="black"/>
<path d="M28.2464 76.4856H25.4378V79.2942H28.2464V76.4856Z" fill="white"/>
<path d="M31.0539 76.4856H28.2453V79.2942H31.0539V76.4856Z" fill="black"/>
<path d="M33.8648 76.4856H31.0562V79.2942H33.8648V76.4856Z" fill="white"/>
<path d="M36.6711 76.4856H33.8625V79.2942H36.6711V76.4856Z" fill="white"/>
<path d="M39.4773 76.4856H36.6687V79.2942H39.4773V76.4856Z" fill="white"/>
<path d="M42.2883 76.4856H39.4797V79.2942H42.2883V76.4856Z" fill="black"/>
<path d="M45.0992 76.4856H42.2906V79.2942H45.0992V76.4856Z" fill="white"/>
<path d="M47.9055 76.4856H45.0969V79.2942H47.9055V76.4856Z" fill="black"/>
<path d="M50.7117 76.4856H47.9031V79.2942H50.7117V76.4856Z" fill="white"/>
<path d="M53.518 76.4856H50.7094V79.2942H53.518V76.4856Z" fill="white"/>
<path d="M56.3289 76.4856H53.5203V79.2942H56.3289V76.4856Z" fill="white"/>
<path d="M59.1399 76.4856H56.3313V79.2942H59.1399V76.4856Z" fill="white"/>
<path d="M61.9461 76.4856H59.1375V79.2942H61.9461V76.4856Z" fill="white"/>
<path d="M64.7524 76.4856H61.9438V79.2942H64.7524V76.4856Z" fill="white"/>
<path d="M67.5633 76.4856H64.7547V79.2942H67.5633V76.4856Z" fill="white"/>
<path d="M70.3696 76.4856H67.561V79.2942H70.3696V76.4856Z" fill="black"/>
<path d="M73.1759 76.4856H70.3673V79.2942H73.1759V76.4856Z" fill="white"/>
<path d="M75.9868 76.4856H73.1782V79.2942H75.9868V76.4856Z" fill="black"/>
<path d="M78.7977 76.4856H75.9891V79.2942H78.7977V76.4856Z" fill="black"/>
<path d="M81.5994 76.4856H78.7908V79.2942H81.5994V76.4856Z" fill="black"/>
<path d="M84.4103 76.4856H81.6017V79.2942H84.4103V76.4856Z" fill="white"/>
<path d="M87.2166 76.4856H84.408V79.2942H87.2166V76.4856Z" fill="white"/>
<path d="M8.58857 79.2942H5.78113V82.1028H8.58973V79.2942H8.58857Z" fill="black"/>
<path d="M11.3995 79.2942H8.59204V82.1028H11.4006V79.2942H11.3995Z" fill="white"/>
<path d="M14.2058 79.2942H11.3983V82.1028H14.2069V79.2942H14.2058Z" fill="black"/>
<path d="M17.0167 79.2942H14.2081V82.1028H17.0167V79.2942Z" fill="black"/>
<path d="M19.8183 79.2942H17.0097V82.1028H19.8183V79.2942Z" fill="black"/>
<path d="M22.6292 79.2942H19.8206V82.1028H22.6292V79.2942Z" fill="white"/>
<path d="M25.4402 79.2942H22.6316V82.1028H25.4402V79.2942Z" fill="black"/>
<path d="M28.2464 79.2942H25.4378V82.1028H28.2464V79.2942Z" fill="white"/>
<path d="M31.0539 79.2942H28.2453V82.1028H31.0539V79.2942Z" fill="white"/>
<path d="M33.8648 79.2942H31.0562V82.1028H33.8648V79.2942Z" fill="black"/>
<path d="M36.6711 79.2942H33.8625V82.1028H36.6711V79.2942Z" fill="black"/>
<path d="M39.4773 79.2942H36.6687V82.1028H39.4773V79.2942Z" fill="black"/>
<path d="M42.2883 79.2942H39.4797V82.1028H42.2883V79.2942Z" fill="white"/>
<path d="M45.0992 79.2942H42.2906V82.1028H45.0992V79.2942Z" fill="black"/>
<path d="M47.9055 79.2942H45.0969V82.1028H47.9055V79.2942Z" fill="white"/>
<path d="M50.7117 79.2942H47.9031V82.1028H50.7117V79.2942Z" fill="white"/>
<path d="M53.518 79.2942H50.7094V82.1028H53.518V79.2942Z" fill="black"/>
<path d="M56.3289 79.2942H53.5203V82.1028H56.3289V79.2942Z" fill="white"/>
<path d="M59.1398 79.2942H56.3312V82.1028H59.1398V79.2942Z" fill="white"/>
<path d="M61.9461 79.2942H59.1375V82.1028H61.9461V79.2942Z" fill="black"/>
<path d="M64.7524 79.2942H61.9438V82.1028H64.7524V79.2942Z" fill="black"/>
<path d="M67.5633 79.2942H64.7547V82.1028H67.5633V79.2942Z" fill="white"/>
<path d="M70.3696 79.2942H67.561V82.1028H70.3696V79.2942Z" fill="white"/>
<path d="M73.1759 79.2942H70.3673V82.1028H73.1759V79.2942Z" fill="white"/>
<path d="M75.9868 79.2942H73.1782V82.1028H75.9868V79.2942Z" fill="black"/>
<path d="M78.7977 79.2942H75.9891V82.1028H78.7977V79.2942Z" fill="black"/>
<path d="M81.5994 79.2942H78.7908V82.1028H81.5994V79.2942Z" fill="black"/>
<path d="M84.4103 79.2942H81.6017V82.1028H84.4103V79.2942Z" fill="white"/>
<path d="M87.2166 79.2942H84.408V82.1028H87.2166V79.2942Z" fill="black"/>
<path d="M8.58857 82.1017H5.78113V84.9103H8.58973V82.1017H8.58857Z" fill="black"/>
<path d="M11.3995 82.1017H8.59204V84.9103H11.4006V82.1017H11.3995Z" fill="white"/>
<path d="M14.2058 82.1017H11.3983V84.9103H14.2069V82.1017H14.2058Z" fill="white"/>
<path d="M17.0167 82.1017H14.2081V84.9103H17.0167V82.1017Z" fill="white"/>
<path d="M19.8183 82.1017H17.0097V84.9103H19.8183V82.1017Z" fill="white"/>
<path d="M22.6292 82.1017H19.8206V84.9103H22.6292V82.1017Z" fill="white"/>
<path d="M25.4402 82.1017H22.6316V84.9103H25.4402V82.1017Z" fill="black"/>
<path d="M28.2464 82.1017H25.4378V84.9103H28.2464V82.1017Z" fill="white"/>
<path d="M31.0539 82.1017H28.2453V84.9103H31.0539V82.1017Z" fill="black"/>
<path d="M33.8648 82.1017H31.0562V84.9103H33.8648V82.1017Z" fill="white"/>
<path d="M36.6711 82.1017H33.8625V84.9103H36.6711V82.1017Z" fill="white"/>
<path d="M39.4773 82.1017H36.6687V84.9103H39.4773V82.1017Z" fill="black"/>
<path d="M42.2882 82.1017H39.4796V84.9103H42.2882V82.1017Z" fill="black"/>
<path d="M45.0992 82.1017H42.2906V84.9103H45.0992V82.1017Z" fill="black"/>
<path d="M47.9055 82.1017H45.0969V84.9103H47.9055V82.1017Z" fill="white"/>
<path d="M50.7117 82.1017H47.9031V84.9103H50.7117V82.1017Z" fill="black"/>
<path d="M53.518 82.1017H50.7094V84.9103H53.518V82.1017Z" fill="white"/>
<path d="M56.3289 82.1017H53.5203V84.9103H56.3289V82.1017Z" fill="black"/>
<path d="M59.1398 82.1017H56.3312V84.9103H59.1398V82.1017Z" fill="black"/>
<path d="M61.9461 82.1017H59.1375V84.9103H61.9461V82.1017Z" fill="black"/>
<path d="M64.7524 82.1017H61.9438V84.9103H64.7524V82.1017Z" fill="black"/>
<path d="M67.5633 82.1017H64.7547V84.9103H67.5633V82.1017Z" fill="white"/>
<path d="M70.3696 82.1017H67.561V84.9103H70.3696V82.1017Z" fill="white"/>
<path d="M73.1759 82.1017H70.3673V84.9103H73.1759V82.1017Z" fill="white"/>
<path d="M75.9868 82.1017H73.1782V84.9103H75.9868V82.1017Z" fill="white"/>
<path d="M78.7977 82.1017H75.9891V84.9103H78.7977V82.1017Z" fill="white"/>
<path d="M81.5993 82.1017H78.7907V84.9103H81.5993V82.1017Z" fill="white"/>
<path d="M84.4103 82.1017H81.6017V84.9103H84.4103V82.1017Z" fill="black"/>
<path d="M87.2166 82.1017H84.408V84.9103H87.2166V82.1017Z" fill="white"/>
<path d="M8.58857 84.9103H5.78113V87.7189H8.58973V84.9103H8.58857Z" fill="black"/>
<path d="M11.3995 84.9103H8.59204V87.7189H11.4006V84.9103H11.3995Z" fill="black"/>
<path d="M14.2058 84.9103H11.3983V87.7189H14.2069V84.9103H14.2058Z" fill="black"/>
<path d="M17.0167 84.9103H14.2081V87.7189H17.0167V84.9103Z" fill="black"/>
<path d="M19.8183 84.9103H17.0097V87.7189H19.8183V84.9103Z" fill="black"/>
<path d="M22.6292 84.9103H19.8206V87.7189H22.6292V84.9103Z" fill="black"/>
<path d="M25.4402 84.9103H22.6316V87.7189H25.4402V84.9103Z" fill="black"/>
<path d="M28.2464 84.9103H25.4378V87.7189H28.2464V84.9103Z" fill="white"/>
<path d="M31.0539 84.9103H28.2453V87.7189H31.0539V84.9103Z" fill="black"/>
<path d="M33.8648 84.9103H31.0562V87.7189H33.8648V84.9103Z" fill="white"/>
<path d="M36.6711 84.9103H33.8625V87.7189H36.6711V84.9103Z" fill="black"/>
<path d="M39.4773 84.9103H36.6687V87.7189H39.4773V84.9103Z" fill="black"/>
<path d="M42.2883 84.9103H39.4797V87.7189H42.2883V84.9103Z" fill="white"/>
<path d="M45.0992 84.9103H42.2906V87.7189H45.0992V84.9103Z" fill="white"/>
<path d="M47.9055 84.9103H45.0969V87.7189H47.9055V84.9103Z" fill="black"/>
<path d="M50.7117 84.9103H47.9031V87.7189H50.7117V84.9103Z" fill="black"/>
<path d="M53.518 84.9103H50.7094V87.7189H53.518V84.9103Z" fill="white"/>
<path d="M56.3289 84.9103H53.5203V87.7189H56.3289V84.9103Z" fill="black"/>
<path d="M59.1399 84.9103H56.3313V87.7189H59.1399V84.9103Z" fill="white"/>
<path d="M61.9461 84.9103H59.1375V87.7189H61.9461V84.9103Z" fill="white"/>
<path d="M64.7524 84.9103H61.9438V87.7189H64.7524V84.9103Z" fill="black"/>
<path d="M67.5633 84.9103H64.7547V87.7189H67.5633V84.9103Z" fill="black"/>
<path d="M70.3696 84.9103H67.561V87.7189H70.3696V84.9103Z" fill="white"/>
<path d="M73.1759 84.9103H70.3673V87.7189H73.1759V84.9103Z" fill="black"/>
<path d="M75.9868 84.9103H73.1782V87.7189H75.9868V84.9103Z" fill="white"/>
<path d="M78.7977 84.9103H75.9891V87.7189H78.7977V84.9103Z" fill="black"/>
<path d="M81.5994 84.9103H78.7908V87.7189H81.5994V84.9103Z" fill="white"/>
<path d="M84.4103 84.9103H81.6017V87.7189H84.4103V84.9103Z" fill="black"/>
<path d="M87.2166 84.9103H84.408V87.7189H87.2166V84.9103Z" fill="white"/>
</g>
<defs>
<clipPath id="clip0_1_94">
<rect width="93" height="93" fill="white" transform="translate(0 0.5)"/>
</clipPath>
</defs>
</svg>
