<svg width="33" height="33" viewBox="0 0 33 33" fill="none" xmlns="http://www.w3.org/2000/svg">
<path d="M16.4688 1.5V5.567M23.1338 9.833L18.8008 14.166M2.33975 21.5C5.08975 29.303 13.6448 33.399 21.4468 30.649C23.5587 29.9049 25.477 28.6967 27.0605 27.1134C28.644 25.5301 29.8524 23.6119 30.5967 21.5M16.4387 13.167C18.2797 13.167 19.7717 14.659 19.7717 16.5C19.7717 18.341 18.2797 19.833 16.4387 19.833C14.5977 19.833 13.1057 18.341 13.1057 16.5C13.1057 14.659 14.5977 13.167 16.4387 13.167Z" stroke="white" stroke-width="1.5" stroke-linecap="round" stroke-linejoin="round"/>
<path d="M4.80175 16.5H1.46875C1.46875 8.216 8.18475 1.5 16.4688 1.5C24.7528 1.5 31.4688 8.216 31.4688 16.5H28.1357" stroke="white" stroke-width="1.5" stroke-linecap="round" stroke-linejoin="round"/>
<path d="M5.86675 5.90002L8.21675 8.25002" stroke="white" stroke-width="1.5" stroke-linecap="round" stroke-linejoin="round"/>
</svg>
